<mxfile host="app.diagrams.net" modified="2020-09-23T14:23:58.447Z" agent="5.0 (Windows NT 10.0; Win64; x64) AppleWebKit/537.36 (KHTML, like Gecko) Chrome/85.0.4183.102 Safari/537.36" etag="PuNqfwVJ11nVtSoboXru" version="13.7.5" type="github" pages="8">
  <diagram id="C5RBs43oDa-KdzZeNtuy" name="Module_01">
    <mxGraphModel dx="1422" dy="802" grid="1" gridSize="10" guides="1" tooltips="1" connect="1" arrows="1" fold="1" page="1" pageScale="1" pageWidth="827" pageHeight="1169" math="0" shadow="0">
      <root>
        <mxCell id="WIyWlLk6GJQsqaUBKTNV-0" />
        <mxCell id="WIyWlLk6GJQsqaUBKTNV-1" parent="WIyWlLk6GJQsqaUBKTNV-0" />
        <mxCell id="sGKf7VehJZ6SQPWaBCbI-23" style="edgeStyle=orthogonalEdgeStyle;rounded=0;orthogonalLoop=1;jettySize=auto;html=1;exitX=0.5;exitY=1;exitDx=0;exitDy=0;entryX=0.5;entryY=0;entryDx=0;entryDy=0;" parent="WIyWlLk6GJQsqaUBKTNV-1" source="WIyWlLk6GJQsqaUBKTNV-3" target="QLPknpkBetDl3JihI6zV-10" edge="1">
          <mxGeometry relative="1" as="geometry" />
        </mxCell>
        <mxCell id="WIyWlLk6GJQsqaUBKTNV-3" value="Module-1 시작" style="rounded=1;whiteSpace=wrap;html=1;fontSize=12;glass=0;strokeWidth=1;shadow=0;" parent="WIyWlLk6GJQsqaUBKTNV-1" vertex="1">
          <mxGeometry x="383.57" y="87" width="129.25" height="50" as="geometry" />
        </mxCell>
        <mxCell id="sGKf7VehJZ6SQPWaBCbI-68" value="Yes" style="edgeStyle=orthogonalEdgeStyle;rounded=0;orthogonalLoop=1;jettySize=auto;html=1;exitX=0.5;exitY=1;exitDx=0;exitDy=0;entryX=0.5;entryY=0;entryDx=0;entryDy=0;" parent="WIyWlLk6GJQsqaUBKTNV-1" source="QLPknpkBetDl3JihI6zV-2" target="sGKf7VehJZ6SQPWaBCbI-67" edge="1">
          <mxGeometry relative="1" as="geometry" />
        </mxCell>
        <mxCell id="sGKf7VehJZ6SQPWaBCbI-71" value="No" style="edgeStyle=orthogonalEdgeStyle;rounded=0;orthogonalLoop=1;jettySize=auto;html=1;exitX=0;exitY=0.5;exitDx=0;exitDy=0;entryX=0;entryY=0.5;entryDx=0;entryDy=0;" parent="WIyWlLk6GJQsqaUBKTNV-1" source="QLPknpkBetDl3JihI6zV-2" target="sGKf7VehJZ6SQPWaBCbI-64" edge="1">
          <mxGeometry x="0.0167" relative="1" as="geometry">
            <Array as="points">
              <mxPoint x="330.94" y="787" />
              <mxPoint x="330.94" y="657" />
            </Array>
            <mxPoint as="offset" />
          </mxGeometry>
        </mxCell>
        <mxCell id="QLPknpkBetDl3JihI6zV-2" value="Hand 상호작용 여부" style="rhombus;whiteSpace=wrap;html=1;" parent="WIyWlLk6GJQsqaUBKTNV-1" vertex="1">
          <mxGeometry x="350.82" y="742" width="194.75" height="90" as="geometry" />
        </mxCell>
        <mxCell id="sGKf7VehJZ6SQPWaBCbI-24" style="edgeStyle=orthogonalEdgeStyle;rounded=0;orthogonalLoop=1;jettySize=auto;html=1;exitX=0.5;exitY=1;exitDx=0;exitDy=0;" parent="WIyWlLk6GJQsqaUBKTNV-1" source="QLPknpkBetDl3JihI6zV-10" target="QLPknpkBetDl3JihI6zV-11" edge="1">
          <mxGeometry relative="1" as="geometry" />
        </mxCell>
        <mxCell id="QLPknpkBetDl3JihI6zV-10" value="Settings 값 확인" style="shape=hexagon;perimeter=hexagonPerimeter2;whiteSpace=wrap;html=1;fixedSize=1;" parent="WIyWlLk6GJQsqaUBKTNV-1" vertex="1">
          <mxGeometry x="383.57" y="157" width="129.25" height="50" as="geometry" />
        </mxCell>
        <mxCell id="sGKf7VehJZ6SQPWaBCbI-25" style="edgeStyle=orthogonalEdgeStyle;rounded=0;orthogonalLoop=1;jettySize=auto;html=1;exitX=0.5;exitY=1;exitDx=0;exitDy=0;entryX=0.5;entryY=0;entryDx=0;entryDy=0;" parent="WIyWlLk6GJQsqaUBKTNV-1" source="QLPknpkBetDl3JihI6zV-11" target="QLPknpkBetDl3JihI6zV-15" edge="1">
          <mxGeometry relative="1" as="geometry" />
        </mxCell>
        <mxCell id="QLPknpkBetDl3JihI6zV-11" value="값에 따른 Text, Audio 선택" style="rounded=0;whiteSpace=wrap;html=1;" parent="WIyWlLk6GJQsqaUBKTNV-1" vertex="1">
          <mxGeometry x="388.19" y="227" width="120" height="60" as="geometry" />
        </mxCell>
        <mxCell id="sGKf7VehJZ6SQPWaBCbI-62" style="edgeStyle=orthogonalEdgeStyle;rounded=0;orthogonalLoop=1;jettySize=auto;html=1;exitX=0.5;exitY=1;exitDx=0;exitDy=0;entryX=0.5;entryY=0;entryDx=0;entryDy=0;" parent="WIyWlLk6GJQsqaUBKTNV-1" source="QLPknpkBetDl3JihI6zV-15" target="GG3lIaApX8E2W6bswI5q-4" edge="1">
          <mxGeometry relative="1" as="geometry" />
        </mxCell>
        <mxCell id="QLPknpkBetDl3JihI6zV-15" value="Module&amp;nbsp;&lt;br&gt;Text, Audio 출력" style="shape=parallelogram;perimeter=parallelogramPerimeter;whiteSpace=wrap;html=1;fixedSize=1;" parent="WIyWlLk6GJQsqaUBKTNV-1" vertex="1">
          <mxGeometry x="388.19" y="309" width="120" height="60" as="geometry" />
        </mxCell>
        <mxCell id="sGKf7VehJZ6SQPWaBCbI-65" value="No" style="edgeStyle=orthogonalEdgeStyle;rounded=0;orthogonalLoop=1;jettySize=auto;html=1;exitX=0.5;exitY=1;exitDx=0;exitDy=0;entryX=0.5;entryY=0;entryDx=0;entryDy=0;" parent="WIyWlLk6GJQsqaUBKTNV-1" source="QLPknpkBetDl3JihI6zV-56" target="sGKf7VehJZ6SQPWaBCbI-64" edge="1">
          <mxGeometry relative="1" as="geometry" />
        </mxCell>
        <mxCell id="sGKf7VehJZ6SQPWaBCbI-83" value="Yes" style="edgeStyle=orthogonalEdgeStyle;rounded=0;orthogonalLoop=1;jettySize=auto;html=1;exitX=0;exitY=0.5;exitDx=0;exitDy=0;entryX=0;entryY=0.5;entryDx=0;entryDy=0;" parent="WIyWlLk6GJQsqaUBKTNV-1" source="QLPknpkBetDl3JihI6zV-56" target="sGKf7VehJZ6SQPWaBCbI-82" edge="1">
          <mxGeometry relative="1" as="geometry">
            <Array as="points">
              <mxPoint x="88.94" y="542" />
              <mxPoint x="88.94" y="1057" />
            </Array>
          </mxGeometry>
        </mxCell>
        <mxCell id="QLPknpkBetDl3JihI6zV-56" value="목표도면 값이 없을 경우" style="rhombus;whiteSpace=wrap;html=1;" parent="WIyWlLk6GJQsqaUBKTNV-1" vertex="1">
          <mxGeometry x="367.69" y="502" width="161" height="80" as="geometry" />
        </mxCell>
        <mxCell id="GG3lIaApX8E2W6bswI5q-12" style="edgeStyle=orthogonalEdgeStyle;rounded=0;orthogonalLoop=1;jettySize=auto;html=1;exitX=0.5;exitY=1;exitDx=0;exitDy=0;entryX=0.5;entryY=0;entryDx=0;entryDy=0;" parent="WIyWlLk6GJQsqaUBKTNV-1" source="GG3lIaApX8E2W6bswI5q-4" target="QLPknpkBetDl3JihI6zV-56" edge="1">
          <mxGeometry relative="1" as="geometry" />
        </mxCell>
        <mxCell id="GG3lIaApX8E2W6bswI5q-4" value="목표도면&lt;br&gt;&lt;br&gt;1. 정면도&lt;br&gt;2. 평면도&lt;br&gt;3. 단면도" style="shape=hexagon;perimeter=hexagonPerimeter2;whiteSpace=wrap;html=1;fixedSize=1;" parent="WIyWlLk6GJQsqaUBKTNV-1" vertex="1">
          <mxGeometry x="372.45" y="392" width="151.5" height="75" as="geometry" />
        </mxCell>
        <mxCell id="sGKf7VehJZ6SQPWaBCbI-66" style="edgeStyle=orthogonalEdgeStyle;rounded=0;orthogonalLoop=1;jettySize=auto;html=1;exitX=0.5;exitY=1;exitDx=0;exitDy=0;entryX=0.5;entryY=0;entryDx=0;entryDy=0;" parent="WIyWlLk6GJQsqaUBKTNV-1" source="sGKf7VehJZ6SQPWaBCbI-64" target="QLPknpkBetDl3JihI6zV-2" edge="1">
          <mxGeometry relative="1" as="geometry" />
        </mxCell>
        <mxCell id="sGKf7VehJZ6SQPWaBCbI-64" value="Module의 목표를 알려주는&lt;br&gt;Text, Audio 출력" style="shape=parallelogram;perimeter=parallelogramPerimeter;whiteSpace=wrap;html=1;fixedSize=1;" parent="WIyWlLk6GJQsqaUBKTNV-1" vertex="1">
          <mxGeometry x="357.82" y="627" width="180.75" height="60" as="geometry" />
        </mxCell>
        <mxCell id="sGKf7VehJZ6SQPWaBCbI-70" value="No" style="edgeStyle=orthogonalEdgeStyle;rounded=0;orthogonalLoop=1;jettySize=auto;html=1;exitX=0;exitY=0.5;exitDx=0;exitDy=0;entryX=0.5;entryY=1;entryDx=0;entryDy=0;" parent="WIyWlLk6GJQsqaUBKTNV-1" source="sGKf7VehJZ6SQPWaBCbI-67" target="sGKf7VehJZ6SQPWaBCbI-69" edge="1">
          <mxGeometry x="-0.5704" relative="1" as="geometry">
            <mxPoint as="offset" />
          </mxGeometry>
        </mxCell>
        <mxCell id="sGKf7VehJZ6SQPWaBCbI-75" value="Yes" style="edgeStyle=orthogonalEdgeStyle;rounded=0;orthogonalLoop=1;jettySize=auto;html=1;exitX=1;exitY=0.5;exitDx=0;exitDy=0;" parent="WIyWlLk6GJQsqaUBKTNV-1" source="sGKf7VehJZ6SQPWaBCbI-67" target="sGKf7VehJZ6SQPWaBCbI-74" edge="1">
          <mxGeometry relative="1" as="geometry" />
        </mxCell>
        <mxCell id="sGKf7VehJZ6SQPWaBCbI-67" value="상호작용된 도면이&lt;br&gt;목표도면과 일치 여부" style="rhombus;whiteSpace=wrap;html=1;" parent="WIyWlLk6GJQsqaUBKTNV-1" vertex="1">
          <mxGeometry x="350.82" y="902" width="194.75" height="90" as="geometry" />
        </mxCell>
        <mxCell id="sGKf7VehJZ6SQPWaBCbI-73" style="edgeStyle=orthogonalEdgeStyle;rounded=0;orthogonalLoop=1;jettySize=auto;html=1;exitX=0.5;exitY=0;exitDx=0;exitDy=0;entryX=0;entryY=0.5;entryDx=0;entryDy=0;" parent="WIyWlLk6GJQsqaUBKTNV-1" source="sGKf7VehJZ6SQPWaBCbI-69" target="sGKf7VehJZ6SQPWaBCbI-64" edge="1">
          <mxGeometry relative="1" as="geometry">
            <Array as="points">
              <mxPoint x="218.94" y="657" />
            </Array>
          </mxGeometry>
        </mxCell>
        <mxCell id="sGKf7VehJZ6SQPWaBCbI-69" value="오답 Text, Audio 출력" style="shape=parallelogram;perimeter=parallelogramPerimeter;whiteSpace=wrap;html=1;fixedSize=1;" parent="WIyWlLk6GJQsqaUBKTNV-1" vertex="1">
          <mxGeometry x="128.94" y="757" width="180.75" height="60" as="geometry" />
        </mxCell>
        <mxCell id="sGKf7VehJZ6SQPWaBCbI-77" style="edgeStyle=orthogonalEdgeStyle;rounded=0;orthogonalLoop=1;jettySize=auto;html=1;exitX=0.5;exitY=0;exitDx=0;exitDy=0;entryX=0.5;entryY=1;entryDx=0;entryDy=0;" parent="WIyWlLk6GJQsqaUBKTNV-1" source="sGKf7VehJZ6SQPWaBCbI-74" target="sGKf7VehJZ6SQPWaBCbI-76" edge="1">
          <mxGeometry relative="1" as="geometry" />
        </mxCell>
        <mxCell id="sGKf7VehJZ6SQPWaBCbI-74" value="목표도면의 설명&lt;br&gt;Text, Audio 출력" style="shape=parallelogram;perimeter=parallelogramPerimeter;whiteSpace=wrap;html=1;fixedSize=1;" parent="WIyWlLk6GJQsqaUBKTNV-1" vertex="1">
          <mxGeometry x="608.94" y="917" width="120" height="60" as="geometry" />
        </mxCell>
        <mxCell id="sGKf7VehJZ6SQPWaBCbI-80" style="edgeStyle=orthogonalEdgeStyle;rounded=0;orthogonalLoop=1;jettySize=auto;html=1;exitX=0.5;exitY=0;exitDx=0;exitDy=0;entryX=0.5;entryY=1;entryDx=0;entryDy=0;" parent="WIyWlLk6GJQsqaUBKTNV-1" source="sGKf7VehJZ6SQPWaBCbI-76" target="sGKf7VehJZ6SQPWaBCbI-79" edge="1">
          <mxGeometry relative="1" as="geometry" />
        </mxCell>
        <mxCell id="sGKf7VehJZ6SQPWaBCbI-76" value="목표도면의 PreviewAR&lt;br&gt;활성화" style="rounded=0;whiteSpace=wrap;html=1;" parent="WIyWlLk6GJQsqaUBKTNV-1" vertex="1">
          <mxGeometry x="598.94" y="757" width="140" height="60" as="geometry" />
        </mxCell>
        <mxCell id="sGKf7VehJZ6SQPWaBCbI-81" style="edgeStyle=orthogonalEdgeStyle;rounded=0;orthogonalLoop=1;jettySize=auto;html=1;exitX=0.5;exitY=0;exitDx=0;exitDy=0;entryX=1;entryY=0.5;entryDx=0;entryDy=0;" parent="WIyWlLk6GJQsqaUBKTNV-1" source="sGKf7VehJZ6SQPWaBCbI-79" target="GG3lIaApX8E2W6bswI5q-4" edge="1">
          <mxGeometry relative="1" as="geometry" />
        </mxCell>
        <mxCell id="sGKf7VehJZ6SQPWaBCbI-79" value="목표도면을 다음순서로 변경" style="rounded=0;whiteSpace=wrap;html=1;" parent="WIyWlLk6GJQsqaUBKTNV-1" vertex="1">
          <mxGeometry x="598.94" y="627" width="140" height="60" as="geometry" />
        </mxCell>
        <mxCell id="sGKf7VehJZ6SQPWaBCbI-82" value="Module-1 끝" style="rounded=1;whiteSpace=wrap;html=1;fontSize=12;glass=0;strokeWidth=1;shadow=0;" parent="WIyWlLk6GJQsqaUBKTNV-1" vertex="1">
          <mxGeometry x="383.56" y="1032" width="129.25" height="50" as="geometry" />
        </mxCell>
      </root>
    </mxGraphModel>
  </diagram>
  <diagram id="BQ2Lmhe5zgbXn4sz-IJC" name="Module_02">
    <mxGraphModel dx="1111" dy="1654" grid="1" gridSize="10" guides="1" tooltips="1" connect="1" arrows="1" fold="1" page="1" pageScale="1" pageWidth="827" pageHeight="1169" math="0" shadow="0">
      <root>
        <mxCell id="ET3i-D-9y49CQKC_q8Nz-0" />
        <mxCell id="ET3i-D-9y49CQKC_q8Nz-1" parent="ET3i-D-9y49CQKC_q8Nz-0" />
        <mxCell id="z0GHcmxTXZg46mqxx1Cc-0" style="edgeStyle=orthogonalEdgeStyle;rounded=0;orthogonalLoop=1;jettySize=auto;html=1;exitX=0.5;exitY=1;exitDx=0;exitDy=0;entryX=0.5;entryY=0;entryDx=0;entryDy=0;" edge="1" parent="ET3i-D-9y49CQKC_q8Nz-1" source="z0GHcmxTXZg46mqxx1Cc-1" target="z0GHcmxTXZg46mqxx1Cc-6">
          <mxGeometry relative="1" as="geometry" />
        </mxCell>
        <mxCell id="z0GHcmxTXZg46mqxx1Cc-1" value="Module-2 시작" style="rounded=1;whiteSpace=wrap;html=1;fontSize=12;glass=0;strokeWidth=1;shadow=0;" vertex="1" parent="ET3i-D-9y49CQKC_q8Nz-1">
          <mxGeometry x="383.57" y="87" width="129.25" height="50" as="geometry" />
        </mxCell>
        <mxCell id="z0GHcmxTXZg46mqxx1Cc-2" value="Yes" style="edgeStyle=orthogonalEdgeStyle;rounded=0;orthogonalLoop=1;jettySize=auto;html=1;exitX=0.5;exitY=1;exitDx=0;exitDy=0;entryX=0.5;entryY=0;entryDx=0;entryDy=0;" edge="1" parent="ET3i-D-9y49CQKC_q8Nz-1" source="z0GHcmxTXZg46mqxx1Cc-4" target="z0GHcmxTXZg46mqxx1Cc-20">
          <mxGeometry relative="1" as="geometry" />
        </mxCell>
        <mxCell id="z0GHcmxTXZg46mqxx1Cc-3" value="No" style="edgeStyle=orthogonalEdgeStyle;rounded=0;orthogonalLoop=1;jettySize=auto;html=1;exitX=0;exitY=0.5;exitDx=0;exitDy=0;entryX=0;entryY=0.5;entryDx=0;entryDy=0;" edge="1" parent="ET3i-D-9y49CQKC_q8Nz-1" source="z0GHcmxTXZg46mqxx1Cc-4" target="z0GHcmxTXZg46mqxx1Cc-17">
          <mxGeometry x="0.0167" relative="1" as="geometry">
            <Array as="points">
              <mxPoint x="330.94" y="807" />
              <mxPoint x="330.94" y="677" />
            </Array>
            <mxPoint as="offset" />
          </mxGeometry>
        </mxCell>
        <mxCell id="z0GHcmxTXZg46mqxx1Cc-4" value="Hand 상호작용 여부" style="rhombus;whiteSpace=wrap;html=1;" vertex="1" parent="ET3i-D-9y49CQKC_q8Nz-1">
          <mxGeometry x="350.82" y="762" width="194.75" height="90" as="geometry" />
        </mxCell>
        <mxCell id="z0GHcmxTXZg46mqxx1Cc-5" style="edgeStyle=orthogonalEdgeStyle;rounded=0;orthogonalLoop=1;jettySize=auto;html=1;exitX=0.5;exitY=1;exitDx=0;exitDy=0;" edge="1" parent="ET3i-D-9y49CQKC_q8Nz-1" source="z0GHcmxTXZg46mqxx1Cc-6" target="z0GHcmxTXZg46mqxx1Cc-8">
          <mxGeometry relative="1" as="geometry" />
        </mxCell>
        <mxCell id="z0GHcmxTXZg46mqxx1Cc-6" value="Settings 값 확인" style="shape=hexagon;perimeter=hexagonPerimeter2;whiteSpace=wrap;html=1;fixedSize=1;" vertex="1" parent="ET3i-D-9y49CQKC_q8Nz-1">
          <mxGeometry x="383.57" y="157" width="129.25" height="50" as="geometry" />
        </mxCell>
        <mxCell id="z0GHcmxTXZg46mqxx1Cc-7" style="edgeStyle=orthogonalEdgeStyle;rounded=0;orthogonalLoop=1;jettySize=auto;html=1;exitX=0.5;exitY=1;exitDx=0;exitDy=0;entryX=0.5;entryY=0;entryDx=0;entryDy=0;" edge="1" parent="ET3i-D-9y49CQKC_q8Nz-1" source="z0GHcmxTXZg46mqxx1Cc-8" target="z0GHcmxTXZg46mqxx1Cc-10">
          <mxGeometry relative="1" as="geometry" />
        </mxCell>
        <mxCell id="z0GHcmxTXZg46mqxx1Cc-8" value="값에 따른 Text, Audio 선택" style="rounded=0;whiteSpace=wrap;html=1;" vertex="1" parent="ET3i-D-9y49CQKC_q8Nz-1">
          <mxGeometry x="388.19" y="227" width="120" height="60" as="geometry" />
        </mxCell>
        <mxCell id="z0GHcmxTXZg46mqxx1Cc-9" style="edgeStyle=orthogonalEdgeStyle;rounded=0;orthogonalLoop=1;jettySize=auto;html=1;exitX=0.5;exitY=1;exitDx=0;exitDy=0;entryX=0.5;entryY=0;entryDx=0;entryDy=0;" edge="1" parent="ET3i-D-9y49CQKC_q8Nz-1" source="z0GHcmxTXZg46mqxx1Cc-10" target="z0GHcmxTXZg46mqxx1Cc-15">
          <mxGeometry relative="1" as="geometry" />
        </mxCell>
        <mxCell id="z0GHcmxTXZg46mqxx1Cc-10" value="Module&amp;nbsp;&lt;br&gt;Text, Audio 출력" style="shape=parallelogram;perimeter=parallelogramPerimeter;whiteSpace=wrap;html=1;fixedSize=1;" vertex="1" parent="ET3i-D-9y49CQKC_q8Nz-1">
          <mxGeometry x="388.19" y="309" width="120" height="60" as="geometry" />
        </mxCell>
        <mxCell id="z0GHcmxTXZg46mqxx1Cc-11" value="No" style="edgeStyle=orthogonalEdgeStyle;rounded=0;orthogonalLoop=1;jettySize=auto;html=1;exitX=0.5;exitY=1;exitDx=0;exitDy=0;entryX=0.5;entryY=0;entryDx=0;entryDy=0;" edge="1" parent="ET3i-D-9y49CQKC_q8Nz-1" source="z0GHcmxTXZg46mqxx1Cc-13" target="z0GHcmxTXZg46mqxx1Cc-17">
          <mxGeometry relative="1" as="geometry" />
        </mxCell>
        <mxCell id="z0GHcmxTXZg46mqxx1Cc-12" value="Yes" style="edgeStyle=orthogonalEdgeStyle;rounded=0;orthogonalLoop=1;jettySize=auto;html=1;exitX=0;exitY=0.5;exitDx=0;exitDy=0;entryX=0;entryY=0.5;entryDx=0;entryDy=0;" edge="1" parent="ET3i-D-9y49CQKC_q8Nz-1" source="z0GHcmxTXZg46mqxx1Cc-13" target="z0GHcmxTXZg46mqxx1Cc-29">
          <mxGeometry relative="1" as="geometry">
            <Array as="points">
              <mxPoint x="88.94" y="562" />
              <mxPoint x="88.94" y="1077" />
            </Array>
          </mxGeometry>
        </mxCell>
        <mxCell id="z0GHcmxTXZg46mqxx1Cc-13" value="목표도구 값이 없을 경우" style="rhombus;whiteSpace=wrap;html=1;" vertex="1" parent="ET3i-D-9y49CQKC_q8Nz-1">
          <mxGeometry x="367.69" y="522" width="161" height="80" as="geometry" />
        </mxCell>
        <mxCell id="z0GHcmxTXZg46mqxx1Cc-30" style="edgeStyle=orthogonalEdgeStyle;rounded=0;orthogonalLoop=1;jettySize=auto;html=1;exitX=0.5;exitY=1;exitDx=0;exitDy=0;entryX=0.5;entryY=0;entryDx=0;entryDy=0;" edge="1" parent="ET3i-D-9y49CQKC_q8Nz-1" source="z0GHcmxTXZg46mqxx1Cc-15" target="z0GHcmxTXZg46mqxx1Cc-13">
          <mxGeometry relative="1" as="geometry" />
        </mxCell>
        <mxCell id="z0GHcmxTXZg46mqxx1Cc-15" value="목표도구&lt;br&gt;&lt;br&gt;1. 흙손&lt;br&gt;2. 곱자&lt;br&gt;3. 수준기&lt;br&gt;4. 그라인더" style="shape=hexagon;perimeter=hexagonPerimeter2;whiteSpace=wrap;html=1;fixedSize=1;" vertex="1" parent="ET3i-D-9y49CQKC_q8Nz-1">
          <mxGeometry x="372.45" y="392" width="151.5" height="98" as="geometry" />
        </mxCell>
        <mxCell id="z0GHcmxTXZg46mqxx1Cc-16" style="edgeStyle=orthogonalEdgeStyle;rounded=0;orthogonalLoop=1;jettySize=auto;html=1;exitX=0.5;exitY=1;exitDx=0;exitDy=0;entryX=0.5;entryY=0;entryDx=0;entryDy=0;" edge="1" parent="ET3i-D-9y49CQKC_q8Nz-1" source="z0GHcmxTXZg46mqxx1Cc-17" target="z0GHcmxTXZg46mqxx1Cc-4">
          <mxGeometry relative="1" as="geometry" />
        </mxCell>
        <mxCell id="z0GHcmxTXZg46mqxx1Cc-17" value="Module의 목표를 알려주는&lt;br&gt;Text, Audio 출력" style="shape=parallelogram;perimeter=parallelogramPerimeter;whiteSpace=wrap;html=1;fixedSize=1;" vertex="1" parent="ET3i-D-9y49CQKC_q8Nz-1">
          <mxGeometry x="357.82" y="647" width="180.75" height="60" as="geometry" />
        </mxCell>
        <mxCell id="z0GHcmxTXZg46mqxx1Cc-18" value="No" style="edgeStyle=orthogonalEdgeStyle;rounded=0;orthogonalLoop=1;jettySize=auto;html=1;exitX=0;exitY=0.5;exitDx=0;exitDy=0;entryX=0.5;entryY=1;entryDx=0;entryDy=0;" edge="1" parent="ET3i-D-9y49CQKC_q8Nz-1" source="z0GHcmxTXZg46mqxx1Cc-20" target="z0GHcmxTXZg46mqxx1Cc-22">
          <mxGeometry x="-0.5704" relative="1" as="geometry">
            <mxPoint as="offset" />
          </mxGeometry>
        </mxCell>
        <mxCell id="z0GHcmxTXZg46mqxx1Cc-19" value="Yes" style="edgeStyle=orthogonalEdgeStyle;rounded=0;orthogonalLoop=1;jettySize=auto;html=1;exitX=1;exitY=0.5;exitDx=0;exitDy=0;" edge="1" parent="ET3i-D-9y49CQKC_q8Nz-1" source="z0GHcmxTXZg46mqxx1Cc-20" target="z0GHcmxTXZg46mqxx1Cc-24">
          <mxGeometry relative="1" as="geometry" />
        </mxCell>
        <mxCell id="z0GHcmxTXZg46mqxx1Cc-20" value="상호작용된 도구가&lt;br&gt;목표도구와 일치 여부" style="rhombus;whiteSpace=wrap;html=1;" vertex="1" parent="ET3i-D-9y49CQKC_q8Nz-1">
          <mxGeometry x="350.82" y="922" width="194.75" height="90" as="geometry" />
        </mxCell>
        <mxCell id="z0GHcmxTXZg46mqxx1Cc-21" style="edgeStyle=orthogonalEdgeStyle;rounded=0;orthogonalLoop=1;jettySize=auto;html=1;exitX=0.5;exitY=0;exitDx=0;exitDy=0;entryX=0;entryY=0.5;entryDx=0;entryDy=0;" edge="1" parent="ET3i-D-9y49CQKC_q8Nz-1" source="z0GHcmxTXZg46mqxx1Cc-22" target="z0GHcmxTXZg46mqxx1Cc-17">
          <mxGeometry relative="1" as="geometry">
            <Array as="points">
              <mxPoint x="218.94" y="677" />
            </Array>
          </mxGeometry>
        </mxCell>
        <mxCell id="z0GHcmxTXZg46mqxx1Cc-22" value="오답 Text, Audio 출력" style="shape=parallelogram;perimeter=parallelogramPerimeter;whiteSpace=wrap;html=1;fixedSize=1;" vertex="1" parent="ET3i-D-9y49CQKC_q8Nz-1">
          <mxGeometry x="128.94" y="777" width="180.75" height="60" as="geometry" />
        </mxCell>
        <mxCell id="BIUYkfpoeTmpQhJbhN-7-0" style="edgeStyle=orthogonalEdgeStyle;rounded=0;orthogonalLoop=1;jettySize=auto;html=1;exitX=0.5;exitY=0;exitDx=0;exitDy=0;entryX=0.5;entryY=1;entryDx=0;entryDy=0;" edge="1" parent="ET3i-D-9y49CQKC_q8Nz-1" source="z0GHcmxTXZg46mqxx1Cc-24" target="z0GHcmxTXZg46mqxx1Cc-28">
          <mxGeometry relative="1" as="geometry" />
        </mxCell>
        <mxCell id="z0GHcmxTXZg46mqxx1Cc-24" value="목표도구의 설명&lt;br&gt;Text, Audio 출력" style="shape=parallelogram;perimeter=parallelogramPerimeter;whiteSpace=wrap;html=1;fixedSize=1;" vertex="1" parent="ET3i-D-9y49CQKC_q8Nz-1">
          <mxGeometry x="608.94" y="937" width="120" height="60" as="geometry" />
        </mxCell>
        <mxCell id="z0GHcmxTXZg46mqxx1Cc-27" style="edgeStyle=orthogonalEdgeStyle;rounded=0;orthogonalLoop=1;jettySize=auto;html=1;exitX=0.5;exitY=0;exitDx=0;exitDy=0;entryX=1;entryY=0.5;entryDx=0;entryDy=0;" edge="1" parent="ET3i-D-9y49CQKC_q8Nz-1" source="z0GHcmxTXZg46mqxx1Cc-28" target="z0GHcmxTXZg46mqxx1Cc-15">
          <mxGeometry relative="1" as="geometry" />
        </mxCell>
        <mxCell id="z0GHcmxTXZg46mqxx1Cc-28" value="목표도구을 다음순서로 변경" style="rounded=0;whiteSpace=wrap;html=1;" vertex="1" parent="ET3i-D-9y49CQKC_q8Nz-1">
          <mxGeometry x="598.94" y="647" width="140" height="60" as="geometry" />
        </mxCell>
        <mxCell id="z0GHcmxTXZg46mqxx1Cc-29" value="Module-2 끝" style="rounded=1;whiteSpace=wrap;html=1;fontSize=12;glass=0;strokeWidth=1;shadow=0;" vertex="1" parent="ET3i-D-9y49CQKC_q8Nz-1">
          <mxGeometry x="383.56" y="1052" width="129.25" height="50" as="geometry" />
        </mxCell>
      </root>
    </mxGraphModel>
  </diagram>
  <diagram id="SQNRgYrA8sReuQPY0Qro" name="Module_03">
    <mxGraphModel dx="2062" dy="1164" grid="1" gridSize="10" guides="1" tooltips="1" connect="1" arrows="1" fold="1" page="1" pageScale="1" pageWidth="827" pageHeight="1169" math="0" shadow="0">
      <root>
        <mxCell id="VXWX-0byGCJqaFRDgnqX-0" />
        <mxCell id="VXWX-0byGCJqaFRDgnqX-1" parent="VXWX-0byGCJqaFRDgnqX-0" />
        <mxCell id="sH0tuAJDhYfZd7yTpzOI-0" style="edgeStyle=orthogonalEdgeStyle;rounded=0;orthogonalLoop=1;jettySize=auto;html=1;exitX=0.5;exitY=1;exitDx=0;exitDy=0;entryX=0.5;entryY=0;entryDx=0;entryDy=0;" parent="VXWX-0byGCJqaFRDgnqX-1" source="sH0tuAJDhYfZd7yTpzOI-1" target="sH0tuAJDhYfZd7yTpzOI-6" edge="1">
          <mxGeometry relative="1" as="geometry" />
        </mxCell>
        <mxCell id="sH0tuAJDhYfZd7yTpzOI-1" value="Module-3 시작" style="rounded=1;whiteSpace=wrap;html=1;fontSize=12;glass=0;strokeWidth=1;shadow=0;" parent="VXWX-0byGCJqaFRDgnqX-1" vertex="1">
          <mxGeometry x="383.57" y="87" width="129.25" height="50" as="geometry" />
        </mxCell>
        <mxCell id="sH0tuAJDhYfZd7yTpzOI-2" value="Yes" style="edgeStyle=orthogonalEdgeStyle;rounded=0;orthogonalLoop=1;jettySize=auto;html=1;exitX=0.5;exitY=1;exitDx=0;exitDy=0;entryX=0.5;entryY=0;entryDx=0;entryDy=0;" parent="VXWX-0byGCJqaFRDgnqX-1" source="sH0tuAJDhYfZd7yTpzOI-4" target="sH0tuAJDhYfZd7yTpzOI-20" edge="1">
          <mxGeometry relative="1" as="geometry" />
        </mxCell>
        <mxCell id="sH0tuAJDhYfZd7yTpzOI-3" value="No" style="edgeStyle=orthogonalEdgeStyle;rounded=0;orthogonalLoop=1;jettySize=auto;html=1;exitX=0;exitY=0.5;exitDx=0;exitDy=0;entryX=0;entryY=0.5;entryDx=0;entryDy=0;" parent="VXWX-0byGCJqaFRDgnqX-1" source="sH0tuAJDhYfZd7yTpzOI-4" target="sH0tuAJDhYfZd7yTpzOI-17" edge="1">
          <mxGeometry x="0.0167" relative="1" as="geometry">
            <Array as="points">
              <mxPoint x="330.94" y="807" />
              <mxPoint x="330.94" y="677" />
            </Array>
            <mxPoint as="offset" />
          </mxGeometry>
        </mxCell>
        <mxCell id="sH0tuAJDhYfZd7yTpzOI-4" value="Hand 상호작용 여부" style="rhombus;whiteSpace=wrap;html=1;" parent="VXWX-0byGCJqaFRDgnqX-1" vertex="1">
          <mxGeometry x="350.82" y="762" width="194.75" height="90" as="geometry" />
        </mxCell>
        <mxCell id="sH0tuAJDhYfZd7yTpzOI-5" style="edgeStyle=orthogonalEdgeStyle;rounded=0;orthogonalLoop=1;jettySize=auto;html=1;exitX=0.5;exitY=1;exitDx=0;exitDy=0;" parent="VXWX-0byGCJqaFRDgnqX-1" source="sH0tuAJDhYfZd7yTpzOI-6" target="sH0tuAJDhYfZd7yTpzOI-8" edge="1">
          <mxGeometry relative="1" as="geometry" />
        </mxCell>
        <mxCell id="sH0tuAJDhYfZd7yTpzOI-6" value="Settings 값 확인" style="shape=hexagon;perimeter=hexagonPerimeter2;whiteSpace=wrap;html=1;fixedSize=1;" parent="VXWX-0byGCJqaFRDgnqX-1" vertex="1">
          <mxGeometry x="383.57" y="157" width="129.25" height="50" as="geometry" />
        </mxCell>
        <mxCell id="sH0tuAJDhYfZd7yTpzOI-7" style="edgeStyle=orthogonalEdgeStyle;rounded=0;orthogonalLoop=1;jettySize=auto;html=1;exitX=0.5;exitY=1;exitDx=0;exitDy=0;entryX=0.5;entryY=0;entryDx=0;entryDy=0;" parent="VXWX-0byGCJqaFRDgnqX-1" source="sH0tuAJDhYfZd7yTpzOI-8" target="sH0tuAJDhYfZd7yTpzOI-10" edge="1">
          <mxGeometry relative="1" as="geometry" />
        </mxCell>
        <mxCell id="sH0tuAJDhYfZd7yTpzOI-8" value="값에 따른 Text, Audio 선택" style="rounded=0;whiteSpace=wrap;html=1;" parent="VXWX-0byGCJqaFRDgnqX-1" vertex="1">
          <mxGeometry x="388.19" y="227" width="120" height="60" as="geometry" />
        </mxCell>
        <mxCell id="sH0tuAJDhYfZd7yTpzOI-9" style="edgeStyle=orthogonalEdgeStyle;rounded=0;orthogonalLoop=1;jettySize=auto;html=1;exitX=0.5;exitY=1;exitDx=0;exitDy=0;entryX=0.5;entryY=0;entryDx=0;entryDy=0;" parent="VXWX-0byGCJqaFRDgnqX-1" source="sH0tuAJDhYfZd7yTpzOI-10" target="sH0tuAJDhYfZd7yTpzOI-15" edge="1">
          <mxGeometry relative="1" as="geometry" />
        </mxCell>
        <mxCell id="sH0tuAJDhYfZd7yTpzOI-10" value="Module&amp;nbsp;&lt;br&gt;Text, Audio 출력" style="shape=parallelogram;perimeter=parallelogramPerimeter;whiteSpace=wrap;html=1;fixedSize=1;" parent="VXWX-0byGCJqaFRDgnqX-1" vertex="1">
          <mxGeometry x="388.19" y="309" width="120" height="60" as="geometry" />
        </mxCell>
        <mxCell id="sH0tuAJDhYfZd7yTpzOI-11" value="No" style="edgeStyle=orthogonalEdgeStyle;rounded=0;orthogonalLoop=1;jettySize=auto;html=1;exitX=0.5;exitY=1;exitDx=0;exitDy=0;entryX=0.5;entryY=0;entryDx=0;entryDy=0;" parent="VXWX-0byGCJqaFRDgnqX-1" source="sH0tuAJDhYfZd7yTpzOI-13" target="sH0tuAJDhYfZd7yTpzOI-17" edge="1">
          <mxGeometry relative="1" as="geometry" />
        </mxCell>
        <mxCell id="sH0tuAJDhYfZd7yTpzOI-12" value="Yes" style="edgeStyle=orthogonalEdgeStyle;rounded=0;orthogonalLoop=1;jettySize=auto;html=1;exitX=0;exitY=0.5;exitDx=0;exitDy=0;entryX=0;entryY=0.5;entryDx=0;entryDy=0;" parent="VXWX-0byGCJqaFRDgnqX-1" source="sH0tuAJDhYfZd7yTpzOI-13" target="sH0tuAJDhYfZd7yTpzOI-27" edge="1">
          <mxGeometry relative="1" as="geometry">
            <Array as="points">
              <mxPoint x="88.94" y="562" />
              <mxPoint x="88.94" y="1077" />
            </Array>
          </mxGeometry>
        </mxCell>
        <mxCell id="sH0tuAJDhYfZd7yTpzOI-13" value="목표장비 값이 없을 경우" style="rhombus;whiteSpace=wrap;html=1;" parent="VXWX-0byGCJqaFRDgnqX-1" vertex="1">
          <mxGeometry x="367.69" y="522" width="161" height="80" as="geometry" />
        </mxCell>
        <mxCell id="sH0tuAJDhYfZd7yTpzOI-14" style="edgeStyle=orthogonalEdgeStyle;rounded=0;orthogonalLoop=1;jettySize=auto;html=1;exitX=0.5;exitY=1;exitDx=0;exitDy=0;entryX=0.5;entryY=0;entryDx=0;entryDy=0;" parent="VXWX-0byGCJqaFRDgnqX-1" source="sH0tuAJDhYfZd7yTpzOI-15" target="sH0tuAJDhYfZd7yTpzOI-13" edge="1">
          <mxGeometry relative="1" as="geometry" />
        </mxCell>
        <mxCell id="sH0tuAJDhYfZd7yTpzOI-15" value="목표장비&lt;br&gt;&lt;br&gt;1. 안전모&lt;br&gt;2. 장갑&lt;br&gt;3. 보안경&lt;br&gt;4. 귀마개" style="shape=hexagon;perimeter=hexagonPerimeter2;whiteSpace=wrap;html=1;fixedSize=1;" parent="VXWX-0byGCJqaFRDgnqX-1" vertex="1">
          <mxGeometry x="372.45" y="392" width="151.5" height="98" as="geometry" />
        </mxCell>
        <mxCell id="sH0tuAJDhYfZd7yTpzOI-16" style="edgeStyle=orthogonalEdgeStyle;rounded=0;orthogonalLoop=1;jettySize=auto;html=1;exitX=0.5;exitY=1;exitDx=0;exitDy=0;entryX=0.5;entryY=0;entryDx=0;entryDy=0;" parent="VXWX-0byGCJqaFRDgnqX-1" source="sH0tuAJDhYfZd7yTpzOI-17" target="sH0tuAJDhYfZd7yTpzOI-4" edge="1">
          <mxGeometry relative="1" as="geometry" />
        </mxCell>
        <mxCell id="sH0tuAJDhYfZd7yTpzOI-17" value="Module의 목표를 알려주는&lt;br&gt;Text, Audio 출력" style="shape=parallelogram;perimeter=parallelogramPerimeter;whiteSpace=wrap;html=1;fixedSize=1;" parent="VXWX-0byGCJqaFRDgnqX-1" vertex="1">
          <mxGeometry x="357.82" y="647" width="180.75" height="60" as="geometry" />
        </mxCell>
        <mxCell id="sH0tuAJDhYfZd7yTpzOI-18" value="No" style="edgeStyle=orthogonalEdgeStyle;rounded=0;orthogonalLoop=1;jettySize=auto;html=1;exitX=0;exitY=0.5;exitDx=0;exitDy=0;entryX=0.5;entryY=1;entryDx=0;entryDy=0;" parent="VXWX-0byGCJqaFRDgnqX-1" source="sH0tuAJDhYfZd7yTpzOI-20" target="sH0tuAJDhYfZd7yTpzOI-22" edge="1">
          <mxGeometry x="-0.5704" relative="1" as="geometry">
            <mxPoint as="offset" />
          </mxGeometry>
        </mxCell>
        <mxCell id="sH0tuAJDhYfZd7yTpzOI-19" value="Yes" style="edgeStyle=orthogonalEdgeStyle;rounded=0;orthogonalLoop=1;jettySize=auto;html=1;exitX=1;exitY=0.5;exitDx=0;exitDy=0;" parent="VXWX-0byGCJqaFRDgnqX-1" source="sH0tuAJDhYfZd7yTpzOI-20" target="sH0tuAJDhYfZd7yTpzOI-24" edge="1">
          <mxGeometry relative="1" as="geometry" />
        </mxCell>
        <mxCell id="sH0tuAJDhYfZd7yTpzOI-20" value="상호작용된 장비가&lt;br&gt;목표장비와 일치 여부" style="rhombus;whiteSpace=wrap;html=1;" parent="VXWX-0byGCJqaFRDgnqX-1" vertex="1">
          <mxGeometry x="350.82" y="922" width="194.75" height="90" as="geometry" />
        </mxCell>
        <mxCell id="sH0tuAJDhYfZd7yTpzOI-21" style="edgeStyle=orthogonalEdgeStyle;rounded=0;orthogonalLoop=1;jettySize=auto;html=1;exitX=0.5;exitY=0;exitDx=0;exitDy=0;entryX=0;entryY=0.5;entryDx=0;entryDy=0;" parent="VXWX-0byGCJqaFRDgnqX-1" source="sH0tuAJDhYfZd7yTpzOI-22" target="sH0tuAJDhYfZd7yTpzOI-17" edge="1">
          <mxGeometry relative="1" as="geometry">
            <Array as="points">
              <mxPoint x="218.94" y="677" />
            </Array>
          </mxGeometry>
        </mxCell>
        <mxCell id="sH0tuAJDhYfZd7yTpzOI-22" value="오답 Text, Audio 출력" style="shape=parallelogram;perimeter=parallelogramPerimeter;whiteSpace=wrap;html=1;fixedSize=1;" parent="VXWX-0byGCJqaFRDgnqX-1" vertex="1">
          <mxGeometry x="128.94" y="777" width="180.75" height="60" as="geometry" />
        </mxCell>
        <mxCell id="sH0tuAJDhYfZd7yTpzOI-32" style="edgeStyle=orthogonalEdgeStyle;rounded=0;orthogonalLoop=1;jettySize=auto;html=1;exitX=0.5;exitY=0;exitDx=0;exitDy=0;entryX=0.5;entryY=1;entryDx=0;entryDy=0;" parent="VXWX-0byGCJqaFRDgnqX-1" source="sH0tuAJDhYfZd7yTpzOI-24" target="sH0tuAJDhYfZd7yTpzOI-28" edge="1">
          <mxGeometry relative="1" as="geometry" />
        </mxCell>
        <mxCell id="sH0tuAJDhYfZd7yTpzOI-24" value="목표장비의 설명&lt;br&gt;Text, Audio 출력" style="shape=parallelogram;perimeter=parallelogramPerimeter;whiteSpace=wrap;html=1;fixedSize=1;" parent="VXWX-0byGCJqaFRDgnqX-1" vertex="1">
          <mxGeometry x="608.94" y="937" width="120" height="60" as="geometry" />
        </mxCell>
        <mxCell id="sH0tuAJDhYfZd7yTpzOI-25" style="edgeStyle=orthogonalEdgeStyle;rounded=0;orthogonalLoop=1;jettySize=auto;html=1;exitX=0.5;exitY=0;exitDx=0;exitDy=0;entryX=1;entryY=0.5;entryDx=0;entryDy=0;" parent="VXWX-0byGCJqaFRDgnqX-1" source="sH0tuAJDhYfZd7yTpzOI-26" target="sH0tuAJDhYfZd7yTpzOI-15" edge="1">
          <mxGeometry relative="1" as="geometry" />
        </mxCell>
        <mxCell id="sH0tuAJDhYfZd7yTpzOI-26" value="목표장비을 다음순서로 변경" style="rounded=0;whiteSpace=wrap;html=1;" parent="VXWX-0byGCJqaFRDgnqX-1" vertex="1">
          <mxGeometry x="598.94" y="647" width="140" height="60" as="geometry" />
        </mxCell>
        <mxCell id="sH0tuAJDhYfZd7yTpzOI-27" value="Module-3 끝" style="rounded=1;whiteSpace=wrap;html=1;fontSize=12;glass=0;strokeWidth=1;shadow=0;" parent="VXWX-0byGCJqaFRDgnqX-1" vertex="1">
          <mxGeometry x="383.56" y="1052" width="129.25" height="50" as="geometry" />
        </mxCell>
        <mxCell id="sH0tuAJDhYfZd7yTpzOI-29" value="Yes" style="edgeStyle=orthogonalEdgeStyle;rounded=0;orthogonalLoop=1;jettySize=auto;html=1;exitX=0.5;exitY=0;exitDx=0;exitDy=0;" parent="VXWX-0byGCJqaFRDgnqX-1" source="sH0tuAJDhYfZd7yTpzOI-28" target="sH0tuAJDhYfZd7yTpzOI-26" edge="1">
          <mxGeometry relative="1" as="geometry" />
        </mxCell>
        <mxCell id="sH0tuAJDhYfZd7yTpzOI-30" value="No" style="edgeStyle=orthogonalEdgeStyle;rounded=0;orthogonalLoop=1;jettySize=auto;html=1;exitX=0;exitY=0.5;exitDx=0;exitDy=0;entryX=1;entryY=0.5;entryDx=0;entryDy=0;" parent="VXWX-0byGCJqaFRDgnqX-1" source="sH0tuAJDhYfZd7yTpzOI-28" target="sH0tuAJDhYfZd7yTpzOI-17" edge="1">
          <mxGeometry relative="1" as="geometry">
            <Array as="points">
              <mxPoint x="570" y="807" />
              <mxPoint x="570" y="677" />
            </Array>
          </mxGeometry>
        </mxCell>
        <mxCell id="sH0tuAJDhYfZd7yTpzOI-28" value="목표장비 착용여부" style="rhombus;whiteSpace=wrap;html=1;" parent="VXWX-0byGCJqaFRDgnqX-1" vertex="1">
          <mxGeometry x="588.44" y="767" width="161" height="80" as="geometry" />
        </mxCell>
      </root>
    </mxGraphModel>
  </diagram>
  <diagram id="wGPaiJ8EBPxTg-EvyAoU" name="Module_04">
    <mxGraphModel dx="2426" dy="1369" grid="1" gridSize="10" guides="1" tooltips="1" connect="1" arrows="1" fold="1" page="1" pageScale="1" pageWidth="827" pageHeight="1169" math="0" shadow="0">
      <root>
        <mxCell id="d4AVXopuiSx_TAxGb9rn-0" />
        <mxCell id="d4AVXopuiSx_TAxGb9rn-1" parent="d4AVXopuiSx_TAxGb9rn-0" />
        <mxCell id="2k8_wvk2moiN5pz_tOGe-0" style="edgeStyle=orthogonalEdgeStyle;rounded=0;orthogonalLoop=1;jettySize=auto;html=1;exitX=0.5;exitY=1;exitDx=0;exitDy=0;entryX=0.5;entryY=0;entryDx=0;entryDy=0;" edge="1" parent="d4AVXopuiSx_TAxGb9rn-1" source="2k8_wvk2moiN5pz_tOGe-1" target="2k8_wvk2moiN5pz_tOGe-6">
          <mxGeometry relative="1" as="geometry" />
        </mxCell>
        <mxCell id="2k8_wvk2moiN5pz_tOGe-1" value="Module-4 시작" style="rounded=1;whiteSpace=wrap;html=1;fontSize=12;glass=0;strokeWidth=1;shadow=0;" vertex="1" parent="d4AVXopuiSx_TAxGb9rn-1">
          <mxGeometry x="23.07" y="10" width="129.25" height="50" as="geometry" />
        </mxCell>
        <mxCell id="2k8_wvk2moiN5pz_tOGe-5" style="edgeStyle=orthogonalEdgeStyle;rounded=0;orthogonalLoop=1;jettySize=auto;html=1;exitX=0.5;exitY=1;exitDx=0;exitDy=0;" edge="1" parent="d4AVXopuiSx_TAxGb9rn-1" source="2k8_wvk2moiN5pz_tOGe-6" target="2k8_wvk2moiN5pz_tOGe-8">
          <mxGeometry relative="1" as="geometry" />
        </mxCell>
        <mxCell id="2k8_wvk2moiN5pz_tOGe-6" value="Settings 값 확인" style="shape=hexagon;perimeter=hexagonPerimeter2;whiteSpace=wrap;html=1;fixedSize=1;" vertex="1" parent="d4AVXopuiSx_TAxGb9rn-1">
          <mxGeometry x="23.07" y="80" width="129.25" height="50" as="geometry" />
        </mxCell>
        <mxCell id="2k8_wvk2moiN5pz_tOGe-7" style="edgeStyle=orthogonalEdgeStyle;rounded=0;orthogonalLoop=1;jettySize=auto;html=1;exitX=0.5;exitY=1;exitDx=0;exitDy=0;entryX=0.5;entryY=0;entryDx=0;entryDy=0;" edge="1" parent="d4AVXopuiSx_TAxGb9rn-1" source="2k8_wvk2moiN5pz_tOGe-8" target="2k8_wvk2moiN5pz_tOGe-10">
          <mxGeometry relative="1" as="geometry" />
        </mxCell>
        <mxCell id="2k8_wvk2moiN5pz_tOGe-8" value="값에 따른 Text, Audio 선택" style="rounded=0;whiteSpace=wrap;html=1;" vertex="1" parent="d4AVXopuiSx_TAxGb9rn-1">
          <mxGeometry x="27.690000000000005" y="150" width="120" height="60" as="geometry" />
        </mxCell>
        <mxCell id="2k8_wvk2moiN5pz_tOGe-33" style="edgeStyle=orthogonalEdgeStyle;rounded=0;orthogonalLoop=1;jettySize=auto;html=1;exitX=0.5;exitY=1;exitDx=0;exitDy=0;entryX=0.5;entryY=0;entryDx=0;entryDy=0;" edge="1" parent="d4AVXopuiSx_TAxGb9rn-1" source="2k8_wvk2moiN5pz_tOGe-10" target="2k8_wvk2moiN5pz_tOGe-32">
          <mxGeometry relative="1" as="geometry" />
        </mxCell>
        <mxCell id="2k8_wvk2moiN5pz_tOGe-10" value="Module&amp;nbsp;&lt;br&gt;Text, Audio 출력" style="shape=parallelogram;perimeter=parallelogramPerimeter;whiteSpace=wrap;html=1;fixedSize=1;" vertex="1" parent="d4AVXopuiSx_TAxGb9rn-1">
          <mxGeometry x="27.690000000000005" y="232" width="120" height="60" as="geometry" />
        </mxCell>
        <mxCell id="2k8_wvk2moiN5pz_tOGe-35" style="edgeStyle=orthogonalEdgeStyle;rounded=0;orthogonalLoop=1;jettySize=auto;html=1;exitX=0.5;exitY=1;exitDx=0;exitDy=0;entryX=0.5;entryY=0;entryDx=0;entryDy=0;" edge="1" parent="d4AVXopuiSx_TAxGb9rn-1" source="2k8_wvk2moiN5pz_tOGe-32" target="2k8_wvk2moiN5pz_tOGe-34">
          <mxGeometry relative="1" as="geometry" />
        </mxCell>
        <mxCell id="2k8_wvk2moiN5pz_tOGe-32" value="가공실로 이동" style="rounded=0;whiteSpace=wrap;html=1;" vertex="1" parent="d4AVXopuiSx_TAxGb9rn-1">
          <mxGeometry x="27.7" y="320" width="120" height="40" as="geometry" />
        </mxCell>
        <mxCell id="2k8_wvk2moiN5pz_tOGe-37" style="edgeStyle=orthogonalEdgeStyle;rounded=0;orthogonalLoop=1;jettySize=auto;html=1;exitX=0.5;exitY=1;exitDx=0;exitDy=0;entryX=0.5;entryY=0;entryDx=0;entryDy=0;" edge="1" parent="d4AVXopuiSx_TAxGb9rn-1" source="2k8_wvk2moiN5pz_tOGe-34" target="2k8_wvk2moiN5pz_tOGe-36">
          <mxGeometry relative="1" as="geometry" />
        </mxCell>
        <mxCell id="2k8_wvk2moiN5pz_tOGe-34" value="&quot;컴퍼스를 타일에&lt;br&gt;갖다 대세요.&quot;&lt;br&gt;Text, Audio 출력" style="shape=parallelogram;perimeter=parallelogramPerimeter;whiteSpace=wrap;html=1;fixedSize=1;" vertex="1" parent="d4AVXopuiSx_TAxGb9rn-1">
          <mxGeometry x="10.010000000000002" y="390" width="155.37" height="60" as="geometry" />
        </mxCell>
        <mxCell id="2k8_wvk2moiN5pz_tOGe-38" value="No" style="edgeStyle=orthogonalEdgeStyle;rounded=0;orthogonalLoop=1;jettySize=auto;html=1;exitX=1;exitY=0.5;exitDx=0;exitDy=0;entryX=0.942;entryY=0.454;entryDx=0;entryDy=0;entryPerimeter=0;" edge="1" parent="d4AVXopuiSx_TAxGb9rn-1" source="2k8_wvk2moiN5pz_tOGe-36" target="2k8_wvk2moiN5pz_tOGe-34">
          <mxGeometry relative="1" as="geometry">
            <Array as="points">
              <mxPoint x="180" y="518" />
              <mxPoint x="180" y="417" />
              <mxPoint x="156" y="417" />
            </Array>
          </mxGeometry>
        </mxCell>
        <mxCell id="2k8_wvk2moiN5pz_tOGe-50" value="Yes" style="edgeStyle=orthogonalEdgeStyle;rounded=0;orthogonalLoop=1;jettySize=auto;html=1;exitX=0.5;exitY=1;exitDx=0;exitDy=0;entryX=0.5;entryY=0;entryDx=0;entryDy=0;" edge="1" parent="d4AVXopuiSx_TAxGb9rn-1" source="2k8_wvk2moiN5pz_tOGe-36" target="2k8_wvk2moiN5pz_tOGe-49">
          <mxGeometry relative="1" as="geometry" />
        </mxCell>
        <mxCell id="2k8_wvk2moiN5pz_tOGe-36" value="컴퍼스와 타일&lt;br&gt;상호작용 여부" style="rhombus;whiteSpace=wrap;html=1;fillColor=#ffffff;" vertex="1" parent="d4AVXopuiSx_TAxGb9rn-1">
          <mxGeometry x="27.689999999999998" y="480" width="120" height="75" as="geometry" />
        </mxCell>
        <mxCell id="2k8_wvk2moiN5pz_tOGe-44" style="edgeStyle=orthogonalEdgeStyle;rounded=0;orthogonalLoop=1;jettySize=auto;html=1;exitX=0.5;exitY=1;exitDx=0;exitDy=0;entryX=0.5;entryY=0;entryDx=0;entryDy=0;" edge="1" parent="d4AVXopuiSx_TAxGb9rn-1" source="2k8_wvk2moiN5pz_tOGe-40" target="2k8_wvk2moiN5pz_tOGe-43">
          <mxGeometry relative="1" as="geometry" />
        </mxCell>
        <mxCell id="2k8_wvk2moiN5pz_tOGe-40" value="&quot;타일을 가공대 위로&lt;br&gt;옮겨주세요.&quot;&lt;br&gt;Text, Audio 출력" style="shape=parallelogram;perimeter=parallelogramPerimeter;whiteSpace=wrap;html=1;fixedSize=1;" vertex="1" parent="d4AVXopuiSx_TAxGb9rn-1">
          <mxGeometry x="10.000000000000002" y="680" width="155.37" height="60" as="geometry" />
        </mxCell>
        <mxCell id="2k8_wvk2moiN5pz_tOGe-45" value="No" style="edgeStyle=orthogonalEdgeStyle;rounded=0;orthogonalLoop=1;jettySize=auto;html=1;exitX=1;exitY=0.5;exitDx=0;exitDy=0;entryX=1;entryY=0.5;entryDx=0;entryDy=0;" edge="1" parent="d4AVXopuiSx_TAxGb9rn-1" source="2k8_wvk2moiN5pz_tOGe-43" target="2k8_wvk2moiN5pz_tOGe-40">
          <mxGeometry relative="1" as="geometry">
            <Array as="points">
              <mxPoint x="180" y="828" />
              <mxPoint x="180" y="710" />
            </Array>
          </mxGeometry>
        </mxCell>
        <mxCell id="2k8_wvk2moiN5pz_tOGe-47" value="Yes" style="edgeStyle=orthogonalEdgeStyle;rounded=0;orthogonalLoop=1;jettySize=auto;html=1;exitX=0.5;exitY=1;exitDx=0;exitDy=0;entryX=0.5;entryY=0;entryDx=0;entryDy=0;" edge="1" parent="d4AVXopuiSx_TAxGb9rn-1" source="2k8_wvk2moiN5pz_tOGe-43" target="2k8_wvk2moiN5pz_tOGe-46">
          <mxGeometry relative="1" as="geometry" />
        </mxCell>
        <mxCell id="2k8_wvk2moiN5pz_tOGe-43" value="타일과 작업대&lt;br&gt;상호작용 여부" style="rhombus;whiteSpace=wrap;html=1;fillColor=#ffffff;" vertex="1" parent="d4AVXopuiSx_TAxGb9rn-1">
          <mxGeometry x="27.699999999999996" y="790" width="120" height="75" as="geometry" />
        </mxCell>
        <mxCell id="2k8_wvk2moiN5pz_tOGe-53" style="edgeStyle=orthogonalEdgeStyle;rounded=0;orthogonalLoop=1;jettySize=auto;html=1;exitX=0.5;exitY=1;exitDx=0;exitDy=0;entryX=0.5;entryY=0;entryDx=0;entryDy=0;" edge="1" parent="d4AVXopuiSx_TAxGb9rn-1" source="2k8_wvk2moiN5pz_tOGe-46" target="2k8_wvk2moiN5pz_tOGe-52">
          <mxGeometry relative="1" as="geometry" />
        </mxCell>
        <mxCell id="2k8_wvk2moiN5pz_tOGe-46" value="&quot;그라인더를 타일에&lt;br&gt;갖다 대세요.&quot;&lt;br&gt;Text, Audio 출력" style="shape=parallelogram;perimeter=parallelogramPerimeter;whiteSpace=wrap;html=1;fixedSize=1;" vertex="1" parent="d4AVXopuiSx_TAxGb9rn-1">
          <mxGeometry x="10" y="920" width="155.37" height="60" as="geometry" />
        </mxCell>
        <mxCell id="2k8_wvk2moiN5pz_tOGe-51" style="edgeStyle=orthogonalEdgeStyle;rounded=0;orthogonalLoop=1;jettySize=auto;html=1;exitX=0.5;exitY=1;exitDx=0;exitDy=0;entryX=0.5;entryY=0;entryDx=0;entryDy=0;" edge="1" parent="d4AVXopuiSx_TAxGb9rn-1" source="2k8_wvk2moiN5pz_tOGe-49" target="2k8_wvk2moiN5pz_tOGe-40">
          <mxGeometry relative="1" as="geometry" />
        </mxCell>
        <mxCell id="2k8_wvk2moiN5pz_tOGe-49" value="컴퍼스 애니메이션&lt;br&gt;실행" style="rounded=0;whiteSpace=wrap;html=1;" vertex="1" parent="d4AVXopuiSx_TAxGb9rn-1">
          <mxGeometry x="27.689999999999998" y="600" width="120" height="60" as="geometry" />
        </mxCell>
        <mxCell id="2k8_wvk2moiN5pz_tOGe-55" style="edgeStyle=orthogonalEdgeStyle;rounded=0;orthogonalLoop=1;jettySize=auto;html=1;exitX=0.5;exitY=1;exitDx=0;exitDy=0;entryX=0.5;entryY=0;entryDx=0;entryDy=0;" edge="1" parent="d4AVXopuiSx_TAxGb9rn-1" source="2k8_wvk2moiN5pz_tOGe-52" target="2k8_wvk2moiN5pz_tOGe-54">
          <mxGeometry relative="1" as="geometry" />
        </mxCell>
        <mxCell id="2k8_wvk2moiN5pz_tOGe-52" value="그라인더 가공&lt;br&gt;애니메이션 출력" style="rounded=0;whiteSpace=wrap;html=1;" vertex="1" parent="d4AVXopuiSx_TAxGb9rn-1">
          <mxGeometry x="27.689999999999998" y="1000" width="120" height="60" as="geometry" />
        </mxCell>
        <mxCell id="2k8_wvk2moiN5pz_tOGe-58" style="edgeStyle=orthogonalEdgeStyle;rounded=0;orthogonalLoop=1;jettySize=auto;html=1;exitX=1;exitY=0.5;exitDx=0;exitDy=0;entryX=0;entryY=0.5;entryDx=0;entryDy=0;" edge="1" parent="d4AVXopuiSx_TAxGb9rn-1" source="2k8_wvk2moiN5pz_tOGe-54" target="2k8_wvk2moiN5pz_tOGe-57">
          <mxGeometry relative="1" as="geometry" />
        </mxCell>
        <mxCell id="2k8_wvk2moiN5pz_tOGe-54" value="&quot;시험장으로&lt;br&gt;이동하세요.&quot;&lt;br&gt;Text, Audio 출력" style="shape=parallelogram;perimeter=parallelogramPerimeter;whiteSpace=wrap;html=1;fixedSize=1;" vertex="1" parent="d4AVXopuiSx_TAxGb9rn-1">
          <mxGeometry x="10" y="1080" width="155.37" height="60" as="geometry" />
        </mxCell>
        <mxCell id="2k8_wvk2moiN5pz_tOGe-60" style="edgeStyle=orthogonalEdgeStyle;rounded=0;orthogonalLoop=1;jettySize=auto;html=1;exitX=0.5;exitY=1;exitDx=0;exitDy=0;entryX=0.5;entryY=0;entryDx=0;entryDy=0;" edge="1" parent="d4AVXopuiSx_TAxGb9rn-1" source="2k8_wvk2moiN5pz_tOGe-57" target="2k8_wvk2moiN5pz_tOGe-59">
          <mxGeometry relative="1" as="geometry" />
        </mxCell>
        <mxCell id="2k8_wvk2moiN5pz_tOGe-57" value="시험장으로 이동,&lt;br&gt;Part-A 비활성화,&lt;br&gt;Part-B 활성화" style="rounded=0;whiteSpace=wrap;html=1;" vertex="1" parent="d4AVXopuiSx_TAxGb9rn-1">
          <mxGeometry x="230" y="10" width="120" height="55" as="geometry" />
        </mxCell>
        <mxCell id="2k8_wvk2moiN5pz_tOGe-62" style="edgeStyle=orthogonalEdgeStyle;rounded=0;orthogonalLoop=1;jettySize=auto;html=1;exitX=0.5;exitY=1;exitDx=0;exitDy=0;entryX=0.5;entryY=0;entryDx=0;entryDy=0;" edge="1" parent="d4AVXopuiSx_TAxGb9rn-1" source="2k8_wvk2moiN5pz_tOGe-59" target="2k8_wvk2moiN5pz_tOGe-61">
          <mxGeometry relative="1" as="geometry" />
        </mxCell>
        <mxCell id="2k8_wvk2moiN5pz_tOGe-59" value="Part-B 설명에 관한&lt;br&gt;Text, Audio 출력" style="shape=parallelogram;perimeter=parallelogramPerimeter;whiteSpace=wrap;html=1;fixedSize=1;" vertex="1" parent="d4AVXopuiSx_TAxGb9rn-1">
          <mxGeometry x="212.31" y="80" width="155.37" height="60" as="geometry" />
        </mxCell>
        <mxCell id="2k8_wvk2moiN5pz_tOGe-64" style="edgeStyle=orthogonalEdgeStyle;rounded=0;orthogonalLoop=1;jettySize=auto;html=1;exitX=0.5;exitY=1;exitDx=0;exitDy=0;entryX=0.5;entryY=0;entryDx=0;entryDy=0;" edge="1" parent="d4AVXopuiSx_TAxGb9rn-1" source="2k8_wvk2moiN5pz_tOGe-61" target="2k8_wvk2moiN5pz_tOGe-63">
          <mxGeometry relative="1" as="geometry" />
        </mxCell>
        <mxCell id="2k8_wvk2moiN5pz_tOGe-61" value="&quot;못을 잡아주세요.&quot;&lt;br&gt;Text, Audio 출력" style="shape=parallelogram;perimeter=parallelogramPerimeter;whiteSpace=wrap;html=1;fixedSize=1;" vertex="1" parent="d4AVXopuiSx_TAxGb9rn-1">
          <mxGeometry x="212.31" y="160" width="155.37" height="60" as="geometry" />
        </mxCell>
        <mxCell id="2k8_wvk2moiN5pz_tOGe-65" value="No" style="edgeStyle=orthogonalEdgeStyle;rounded=0;orthogonalLoop=1;jettySize=auto;html=1;exitX=1;exitY=0.5;exitDx=0;exitDy=0;entryX=1;entryY=0.5;entryDx=0;entryDy=0;" edge="1" parent="d4AVXopuiSx_TAxGb9rn-1" source="2k8_wvk2moiN5pz_tOGe-63" target="2k8_wvk2moiN5pz_tOGe-61">
          <mxGeometry relative="1" as="geometry">
            <Array as="points">
              <mxPoint x="380" y="278" />
              <mxPoint x="380" y="190" />
            </Array>
          </mxGeometry>
        </mxCell>
        <mxCell id="2k8_wvk2moiN5pz_tOGe-67" value="Yes" style="edgeStyle=orthogonalEdgeStyle;rounded=0;orthogonalLoop=1;jettySize=auto;html=1;exitX=0.5;exitY=1;exitDx=0;exitDy=0;entryX=0.5;entryY=0;entryDx=0;entryDy=0;" edge="1" parent="d4AVXopuiSx_TAxGb9rn-1" source="2k8_wvk2moiN5pz_tOGe-63" target="2k8_wvk2moiN5pz_tOGe-66">
          <mxGeometry relative="1" as="geometry" />
        </mxCell>
        <mxCell id="2k8_wvk2moiN5pz_tOGe-63" value="못과 Hand&lt;br&gt;상호적용 여부" style="rhombus;whiteSpace=wrap;html=1;fillColor=#ffffff;" vertex="1" parent="d4AVXopuiSx_TAxGb9rn-1">
          <mxGeometry x="230" y="240" width="120" height="75" as="geometry" />
        </mxCell>
        <mxCell id="2k8_wvk2moiN5pz_tOGe-69" style="edgeStyle=orthogonalEdgeStyle;rounded=0;orthogonalLoop=1;jettySize=auto;html=1;exitX=0.5;exitY=1;exitDx=0;exitDy=0;entryX=0.5;entryY=0;entryDx=0;entryDy=0;" edge="1" parent="d4AVXopuiSx_TAxGb9rn-1" source="2k8_wvk2moiN5pz_tOGe-66" target="2k8_wvk2moiN5pz_tOGe-68">
          <mxGeometry relative="1" as="geometry" />
        </mxCell>
        <mxCell id="2k8_wvk2moiN5pz_tOGe-66" value="&quot;실타래를 잡아주세요.&quot;&lt;br&gt;Text, Audio 출력" style="shape=parallelogram;perimeter=parallelogramPerimeter;whiteSpace=wrap;html=1;fixedSize=1;" vertex="1" parent="d4AVXopuiSx_TAxGb9rn-1">
          <mxGeometry x="212.31" y="350" width="155.37" height="60" as="geometry" />
        </mxCell>
        <mxCell id="2k8_wvk2moiN5pz_tOGe-70" value="No" style="edgeStyle=orthogonalEdgeStyle;rounded=0;orthogonalLoop=1;jettySize=auto;html=1;exitX=1;exitY=0.5;exitDx=0;exitDy=0;entryX=1;entryY=0.5;entryDx=0;entryDy=0;fontSize=10;" edge="1" parent="d4AVXopuiSx_TAxGb9rn-1" source="2k8_wvk2moiN5pz_tOGe-68" target="2k8_wvk2moiN5pz_tOGe-66">
          <mxGeometry relative="1" as="geometry">
            <Array as="points">
              <mxPoint x="380" y="480" />
              <mxPoint x="380" y="380" />
            </Array>
          </mxGeometry>
        </mxCell>
        <mxCell id="2k8_wvk2moiN5pz_tOGe-72" value="Yes" style="edgeStyle=orthogonalEdgeStyle;rounded=0;orthogonalLoop=1;jettySize=auto;html=1;exitX=0.5;exitY=1;exitDx=0;exitDy=0;entryX=0.5;entryY=0;entryDx=0;entryDy=0;fontSize=10;" edge="1" parent="d4AVXopuiSx_TAxGb9rn-1" source="2k8_wvk2moiN5pz_tOGe-68" target="2k8_wvk2moiN5pz_tOGe-71">
          <mxGeometry relative="1" as="geometry" />
        </mxCell>
        <mxCell id="2k8_wvk2moiN5pz_tOGe-68" value="&lt;font style=&quot;font-size: 6px&quot;&gt;실타래와 나머지&lt;br style=&quot;font-size: 6px&quot;&gt;Hand 상호적용 여부&lt;/font&gt;" style="rhombus;whiteSpace=wrap;html=1;fillColor=#ffffff;" vertex="1" parent="d4AVXopuiSx_TAxGb9rn-1">
          <mxGeometry x="220" y="440" width="140" height="80" as="geometry" />
        </mxCell>
        <mxCell id="2k8_wvk2moiN5pz_tOGe-75" style="edgeStyle=orthogonalEdgeStyle;rounded=0;orthogonalLoop=1;jettySize=auto;html=1;exitX=0.5;exitY=1;exitDx=0;exitDy=0;entryX=0.5;entryY=0;entryDx=0;entryDy=0;fontSize=10;" edge="1" parent="d4AVXopuiSx_TAxGb9rn-1" source="2k8_wvk2moiN5pz_tOGe-71" target="2k8_wvk2moiN5pz_tOGe-73">
          <mxGeometry relative="1" as="geometry" />
        </mxCell>
        <mxCell id="2k8_wvk2moiN5pz_tOGe-71" value="&quot;못과 실타래를&lt;br&gt;부딪혀주세요.&quot;&lt;br&gt;Text, Audio 출력" style="shape=parallelogram;perimeter=parallelogramPerimeter;whiteSpace=wrap;html=1;fixedSize=1;" vertex="1" parent="d4AVXopuiSx_TAxGb9rn-1">
          <mxGeometry x="212.31" y="554.5" width="155.37" height="60" as="geometry" />
        </mxCell>
        <mxCell id="2k8_wvk2moiN5pz_tOGe-74" value="No" style="edgeStyle=orthogonalEdgeStyle;rounded=0;orthogonalLoop=1;jettySize=auto;html=1;exitX=1;exitY=0.5;exitDx=0;exitDy=0;entryX=1;entryY=0.5;entryDx=0;entryDy=0;fontSize=10;" edge="1" parent="d4AVXopuiSx_TAxGb9rn-1" source="2k8_wvk2moiN5pz_tOGe-73" target="2k8_wvk2moiN5pz_tOGe-71">
          <mxGeometry relative="1" as="geometry">
            <Array as="points">
              <mxPoint x="380" y="700" />
              <mxPoint x="380" y="585" />
            </Array>
          </mxGeometry>
        </mxCell>
        <mxCell id="2k8_wvk2moiN5pz_tOGe-77" style="edgeStyle=orthogonalEdgeStyle;rounded=0;orthogonalLoop=1;jettySize=auto;html=1;exitX=0.5;exitY=1;exitDx=0;exitDy=0;entryX=0.5;entryY=0;entryDx=0;entryDy=0;fontSize=10;" edge="1" parent="d4AVXopuiSx_TAxGb9rn-1" source="2k8_wvk2moiN5pz_tOGe-73" target="2k8_wvk2moiN5pz_tOGe-76">
          <mxGeometry relative="1" as="geometry" />
        </mxCell>
        <mxCell id="2k8_wvk2moiN5pz_tOGe-73" value="&lt;span style=&quot;font-size: 6px&quot;&gt;못과 실타래&lt;br&gt;&lt;/span&gt;상호작용 여부" style="rhombus;whiteSpace=wrap;html=1;fillColor=#ffffff;" vertex="1" parent="d4AVXopuiSx_TAxGb9rn-1">
          <mxGeometry x="220" y="660" width="140" height="80" as="geometry" />
        </mxCell>
        <mxCell id="2k8_wvk2moiN5pz_tOGe-79" style="edgeStyle=orthogonalEdgeStyle;rounded=0;orthogonalLoop=1;jettySize=auto;html=1;exitX=0.5;exitY=1;exitDx=0;exitDy=0;entryX=0.5;entryY=0;entryDx=0;entryDy=0;fontSize=10;" edge="1" parent="d4AVXopuiSx_TAxGb9rn-1" source="2k8_wvk2moiN5pz_tOGe-76" target="2k8_wvk2moiN5pz_tOGe-78">
          <mxGeometry relative="1" as="geometry" />
        </mxCell>
        <mxCell id="2k8_wvk2moiN5pz_tOGe-76" value="실로 엮인 못 생성" style="rounded=0;whiteSpace=wrap;html=1;" vertex="1" parent="d4AVXopuiSx_TAxGb9rn-1">
          <mxGeometry x="230" y="770" width="120" height="40" as="geometry" />
        </mxCell>
        <mxCell id="2k8_wvk2moiN5pz_tOGe-82" style="edgeStyle=orthogonalEdgeStyle;rounded=0;orthogonalLoop=1;jettySize=auto;html=1;exitX=0.5;exitY=1;exitDx=0;exitDy=0;entryX=0.5;entryY=0;entryDx=0;entryDy=0;fontSize=10;" edge="1" parent="d4AVXopuiSx_TAxGb9rn-1" source="2k8_wvk2moiN5pz_tOGe-78" target="2k8_wvk2moiN5pz_tOGe-80">
          <mxGeometry relative="1" as="geometry" />
        </mxCell>
        <mxCell id="2k8_wvk2moiN5pz_tOGe-78" value="&quot;못을 벽돌에&lt;br&gt;박아주세요.&quot;&lt;br&gt;Text, Audio 출력" style="shape=parallelogram;perimeter=parallelogramPerimeter;whiteSpace=wrap;html=1;fixedSize=1;" vertex="1" parent="d4AVXopuiSx_TAxGb9rn-1">
          <mxGeometry x="212.31" y="840" width="155.37" height="60" as="geometry" />
        </mxCell>
        <mxCell id="2k8_wvk2moiN5pz_tOGe-81" value="No" style="edgeStyle=orthogonalEdgeStyle;rounded=0;orthogonalLoop=1;jettySize=auto;html=1;exitX=1;exitY=0.5;exitDx=0;exitDy=0;entryX=1;entryY=0.5;entryDx=0;entryDy=0;fontSize=10;" edge="1" parent="d4AVXopuiSx_TAxGb9rn-1" source="2k8_wvk2moiN5pz_tOGe-80" target="2k8_wvk2moiN5pz_tOGe-78">
          <mxGeometry relative="1" as="geometry">
            <Array as="points">
              <mxPoint x="380" y="980" />
              <mxPoint x="380" y="870" />
            </Array>
          </mxGeometry>
        </mxCell>
        <mxCell id="2k8_wvk2moiN5pz_tOGe-84" value="Yes" style="edgeStyle=orthogonalEdgeStyle;rounded=0;orthogonalLoop=1;jettySize=auto;html=1;exitX=0.5;exitY=1;exitDx=0;exitDy=0;entryX=0.5;entryY=0;entryDx=0;entryDy=0;fontSize=10;" edge="1" parent="d4AVXopuiSx_TAxGb9rn-1" source="2k8_wvk2moiN5pz_tOGe-80" target="2k8_wvk2moiN5pz_tOGe-83">
          <mxGeometry relative="1" as="geometry" />
        </mxCell>
        <mxCell id="2k8_wvk2moiN5pz_tOGe-80" value="&lt;span style=&quot;font-size: 6px&quot;&gt;못과 벽돌&lt;br&gt;상호작용 여부&lt;br&gt;&lt;/span&gt;" style="rhombus;whiteSpace=wrap;html=1;fillColor=#ffffff;" vertex="1" parent="d4AVXopuiSx_TAxGb9rn-1">
          <mxGeometry x="220" y="940" width="140" height="80" as="geometry" />
        </mxCell>
        <mxCell id="2k8_wvk2moiN5pz_tOGe-86" value="No" style="edgeStyle=orthogonalEdgeStyle;rounded=0;orthogonalLoop=1;jettySize=auto;html=1;exitX=1;exitY=0.5;exitDx=0;exitDy=0;entryX=1;entryY=0.5;entryDx=0;entryDy=0;targetPerimeterSpacing=4;fontSize=10;" edge="1" parent="d4AVXopuiSx_TAxGb9rn-1" source="2k8_wvk2moiN5pz_tOGe-83" target="2k8_wvk2moiN5pz_tOGe-61">
          <mxGeometry x="0.0076" relative="1" as="geometry">
            <Array as="points">
              <mxPoint x="410" y="1100" />
              <mxPoint x="410" y="190" />
            </Array>
            <mxPoint as="offset" />
          </mxGeometry>
        </mxCell>
        <mxCell id="2k8_wvk2moiN5pz_tOGe-89" value="Yes" style="edgeStyle=orthogonalEdgeStyle;rounded=0;orthogonalLoop=1;jettySize=auto;html=1;exitX=0.5;exitY=1;exitDx=0;exitDy=0;entryX=0;entryY=0.5;entryDx=0;entryDy=0;targetPerimeterSpacing=4;fontSize=10;" edge="1" parent="d4AVXopuiSx_TAxGb9rn-1" source="2k8_wvk2moiN5pz_tOGe-83" target="2k8_wvk2moiN5pz_tOGe-88">
          <mxGeometry x="0.0193" relative="1" as="geometry">
            <Array as="points">
              <mxPoint x="290" y="1150" />
              <mxPoint x="430" y="1150" />
              <mxPoint x="430" y="35" />
            </Array>
            <mxPoint as="offset" />
          </mxGeometry>
        </mxCell>
        <mxCell id="2k8_wvk2moiN5pz_tOGe-83" value="&lt;span style=&quot;font-size: 6px&quot;&gt;해당 작업이 2번째 인가?&lt;br&gt;&lt;/span&gt;" style="rhombus;whiteSpace=wrap;html=1;fillColor=#ffffff;" vertex="1" parent="d4AVXopuiSx_TAxGb9rn-1">
          <mxGeometry x="220" y="1060" width="140" height="80" as="geometry" />
        </mxCell>
        <mxCell id="2k8_wvk2moiN5pz_tOGe-91" style="edgeStyle=orthogonalEdgeStyle;rounded=0;orthogonalLoop=1;jettySize=auto;html=1;exitX=0.5;exitY=1;exitDx=0;exitDy=0;entryX=0.5;entryY=0;entryDx=0;entryDy=0;targetPerimeterSpacing=4;fontSize=10;" edge="1" parent="d4AVXopuiSx_TAxGb9rn-1" source="2k8_wvk2moiN5pz_tOGe-88" target="2k8_wvk2moiN5pz_tOGe-90">
          <mxGeometry relative="1" as="geometry" />
        </mxCell>
        <mxCell id="2k8_wvk2moiN5pz_tOGe-88" value="Part-C 설명에 관한&lt;br&gt;Text, Audio 출력" style="shape=parallelogram;perimeter=parallelogramPerimeter;whiteSpace=wrap;html=1;fixedSize=1;" vertex="1" parent="d4AVXopuiSx_TAxGb9rn-1">
          <mxGeometry x="450" y="5" width="155.37" height="60" as="geometry" />
        </mxCell>
        <mxCell id="2k8_wvk2moiN5pz_tOGe-90" value="Part-B 비활성화,&lt;br&gt;Part-C 활성화" style="rounded=0;whiteSpace=wrap;html=1;" vertex="1" parent="d4AVXopuiSx_TAxGb9rn-1">
          <mxGeometry x="467.68" y="90" width="120" height="40" as="geometry" />
        </mxCell>
      </root>
    </mxGraphModel>
  </diagram>
  <diagram id="j0zFELOYFA_weKJiUxwk" name="Module-1, 2, 3">
    <mxGraphModel dx="1422" dy="772" grid="1" gridSize="10" guides="1" tooltips="1" connect="1" arrows="1" fold="1" page="1" pageScale="1" pageWidth="827" pageHeight="1169" math="0" shadow="0">
      <root>
        <mxCell id="cqHebY4lpdV1N4gtzf8n-0" />
        <mxCell id="cqHebY4lpdV1N4gtzf8n-1" parent="cqHebY4lpdV1N4gtzf8n-0" />
        <mxCell id="82i9Ifv7qCCSge_n-UMQ-4" style="edgeStyle=orthogonalEdgeStyle;rounded=0;orthogonalLoop=1;jettySize=auto;html=1;exitX=0.5;exitY=1;exitDx=0;exitDy=0;entryX=0.5;entryY=0;entryDx=0;entryDy=0;targetPerimeterSpacing=4;fontSize=10;" parent="cqHebY4lpdV1N4gtzf8n-1" source="HbCCs2pYQdQ42wzoqag3-1" target="HbCCs2pYQdQ42wzoqag3-3" edge="1">
          <mxGeometry relative="1" as="geometry" />
        </mxCell>
        <mxCell id="HbCCs2pYQdQ42wzoqag3-1" value="Module 시작" style="rounded=1;whiteSpace=wrap;html=1;fontSize=12;glass=0;strokeWidth=1;shadow=0;" parent="cqHebY4lpdV1N4gtzf8n-1" vertex="1">
          <mxGeometry x="353.38" y="10" width="129.25" height="50" as="geometry" />
        </mxCell>
        <mxCell id="82i9Ifv7qCCSge_n-UMQ-3" style="edgeStyle=orthogonalEdgeStyle;rounded=0;orthogonalLoop=1;jettySize=auto;html=1;exitX=0.5;exitY=1;exitDx=0;exitDy=0;entryX=0.5;entryY=0;entryDx=0;entryDy=0;targetPerimeterSpacing=4;fontSize=10;" parent="cqHebY4lpdV1N4gtzf8n-1" source="HbCCs2pYQdQ42wzoqag3-3" target="HbCCs2pYQdQ42wzoqag3-6" edge="1">
          <mxGeometry relative="1" as="geometry" />
        </mxCell>
        <mxCell id="HbCCs2pYQdQ42wzoqag3-3" value="Mission&lt;br&gt;Settings 값 확인" style="shape=hexagon;perimeter=hexagonPerimeter2;whiteSpace=wrap;html=1;fixedSize=1;" parent="cqHebY4lpdV1N4gtzf8n-1" vertex="1">
          <mxGeometry x="349" y="90" width="129.25" height="50" as="geometry" />
        </mxCell>
        <mxCell id="CCf4gyZ3A-iMSWkEWNyC-3" style="edgeStyle=orthogonalEdgeStyle;rounded=0;orthogonalLoop=1;jettySize=auto;html=1;exitX=0.5;exitY=1;exitDx=0;exitDy=0;entryX=0.5;entryY=0;entryDx=0;entryDy=0;targetPerimeterSpacing=4;fontSize=12;" parent="cqHebY4lpdV1N4gtzf8n-1" source="HbCCs2pYQdQ42wzoqag3-6" target="CCf4gyZ3A-iMSWkEWNyC-1" edge="1">
          <mxGeometry relative="1" as="geometry" />
        </mxCell>
        <mxCell id="HbCCs2pYQdQ42wzoqag3-6" value="Mission 시작&lt;br&gt;Text, Audio 출력" style="shape=parallelogram;perimeter=parallelogramPerimeter;whiteSpace=wrap;html=1;fixedSize=1;" parent="cqHebY4lpdV1N4gtzf8n-1" vertex="1">
          <mxGeometry x="358" y="170" width="120" height="60" as="geometry" />
        </mxCell>
        <mxCell id="fDOsmEuUnez6s_WzZJq2-9" value="Yes" style="edgeStyle=orthogonalEdgeStyle;rounded=0;orthogonalLoop=1;jettySize=auto;html=1;exitX=0;exitY=0.5;exitDx=0;exitDy=0;entryX=1;entryY=0.5;entryDx=0;entryDy=0;targetPerimeterSpacing=4;fontSize=10;" parent="cqHebY4lpdV1N4gtzf8n-1" source="fDOsmEuUnez6s_WzZJq2-2" target="fDOsmEuUnez6s_WzZJq2-4" edge="1">
          <mxGeometry relative="1" as="geometry" />
        </mxCell>
        <mxCell id="fDOsmEuUnez6s_WzZJq2-10" value="No" style="edgeStyle=orthogonalEdgeStyle;rounded=0;orthogonalLoop=1;jettySize=auto;html=1;exitX=1;exitY=0.5;exitDx=0;exitDy=0;entryX=0;entryY=0.5;entryDx=0;entryDy=0;targetPerimeterSpacing=4;fontSize=10;" parent="cqHebY4lpdV1N4gtzf8n-1" source="fDOsmEuUnez6s_WzZJq2-2" target="fDOsmEuUnez6s_WzZJq2-6" edge="1">
          <mxGeometry relative="1" as="geometry" />
        </mxCell>
        <mxCell id="fDOsmEuUnez6s_WzZJq2-2" value="&lt;font style=&quot;font-size: 12px&quot;&gt;안내메세지에&lt;br&gt;Audio 포함 여부&lt;/font&gt;" style="rhombus;whiteSpace=wrap;html=1;fillColor=#ffffff;fontSize=10;" parent="cqHebY4lpdV1N4gtzf8n-1" vertex="1">
          <mxGeometry x="348" y="350" width="140" height="90" as="geometry" />
        </mxCell>
        <mxCell id="Bkv_I8tJv2EYLEavmeqM-2" style="edgeStyle=orthogonalEdgeStyle;rounded=0;orthogonalLoop=1;jettySize=auto;html=1;exitX=0.5;exitY=1;exitDx=0;exitDy=0;entryX=0.5;entryY=0;entryDx=0;entryDy=0;targetPerimeterSpacing=4;fontSize=12;" parent="cqHebY4lpdV1N4gtzf8n-1" source="fDOsmEuUnez6s_WzZJq2-4" target="CCf4gyZ3A-iMSWkEWNyC-0" edge="1">
          <mxGeometry relative="1" as="geometry" />
        </mxCell>
        <mxCell id="fDOsmEuUnez6s_WzZJq2-4" value="안내메세지&amp;nbsp;&lt;br&gt;Text, Audio 출력" style="shape=parallelogram;perimeter=parallelogramPerimeter;whiteSpace=wrap;html=1;fixedSize=1;" parent="cqHebY4lpdV1N4gtzf8n-1" vertex="1">
          <mxGeometry x="174" y="365" width="120" height="60" as="geometry" />
        </mxCell>
        <mxCell id="Bkv_I8tJv2EYLEavmeqM-3" style="edgeStyle=orthogonalEdgeStyle;rounded=0;orthogonalLoop=1;jettySize=auto;html=1;exitX=0.5;exitY=1;exitDx=0;exitDy=0;targetPerimeterSpacing=4;fontSize=12;" parent="cqHebY4lpdV1N4gtzf8n-1" source="fDOsmEuUnez6s_WzZJq2-6" target="CCf4gyZ3A-iMSWkEWNyC-0" edge="1">
          <mxGeometry relative="1" as="geometry" />
        </mxCell>
        <mxCell id="fDOsmEuUnez6s_WzZJq2-6" value="안내메세지&amp;nbsp;&lt;br&gt;Text 출력" style="shape=parallelogram;perimeter=parallelogramPerimeter;whiteSpace=wrap;html=1;fixedSize=1;" parent="cqHebY4lpdV1N4gtzf8n-1" vertex="1">
          <mxGeometry x="534" y="365" width="120" height="60" as="geometry" />
        </mxCell>
        <mxCell id="MnuFQATYtYQSXa6r9P2V-2" value="Yes" style="edgeStyle=orthogonalEdgeStyle;rounded=0;orthogonalLoop=1;jettySize=auto;html=1;exitX=0.5;exitY=1;exitDx=0;exitDy=0;entryX=0.5;entryY=0;entryDx=0;entryDy=0;targetPerimeterSpacing=4;fontSize=12;" parent="cqHebY4lpdV1N4gtzf8n-1" source="CCf4gyZ3A-iMSWkEWNyC-0" target="MnuFQATYtYQSXa6r9P2V-0" edge="1">
          <mxGeometry relative="1" as="geometry" />
        </mxCell>
        <mxCell id="MnuFQATYtYQSXa6r9P2V-4" value="No" style="edgeStyle=orthogonalEdgeStyle;rounded=0;orthogonalLoop=1;jettySize=auto;html=1;exitX=0;exitY=0.5;exitDx=0;exitDy=0;targetPerimeterSpacing=4;fontSize=12;" parent="cqHebY4lpdV1N4gtzf8n-1" source="CCf4gyZ3A-iMSWkEWNyC-0" edge="1">
          <mxGeometry x="-0.8368" relative="1" as="geometry">
            <mxPoint x="418" y="330" as="targetPoint" />
            <Array as="points">
              <mxPoint x="130" y="535" />
              <mxPoint x="130" y="330" />
            </Array>
            <mxPoint as="offset" />
          </mxGeometry>
        </mxCell>
        <mxCell id="CCf4gyZ3A-iMSWkEWNyC-0" value="&lt;span style=&quot;font-size: 12px&quot;&gt;Hand와 상호작용?&lt;/span&gt;" style="rhombus;whiteSpace=wrap;html=1;fillColor=#ffffff;fontSize=10;" parent="cqHebY4lpdV1N4gtzf8n-1" vertex="1">
          <mxGeometry x="348" y="490" width="140" height="90" as="geometry" />
        </mxCell>
        <mxCell id="CCf4gyZ3A-iMSWkEWNyC-4" style="edgeStyle=orthogonalEdgeStyle;rounded=0;orthogonalLoop=1;jettySize=auto;html=1;exitX=0.5;exitY=1;exitDx=0;exitDy=0;entryX=0.5;entryY=0;entryDx=0;entryDy=0;targetPerimeterSpacing=4;fontSize=12;" parent="cqHebY4lpdV1N4gtzf8n-1" source="CCf4gyZ3A-iMSWkEWNyC-1" target="fDOsmEuUnez6s_WzZJq2-2" edge="1">
          <mxGeometry relative="1" as="geometry" />
        </mxCell>
        <mxCell id="CCf4gyZ3A-iMSWkEWNyC-1" value="&lt;font style=&quot;font-size: 12px&quot;&gt;Mission 목표 (재)설정&lt;/font&gt;" style="rounded=0;whiteSpace=wrap;html=1;fillColor=#ffffff;fontSize=12;" parent="cqHebY4lpdV1N4gtzf8n-1" vertex="1">
          <mxGeometry x="358" y="260" width="120" height="50" as="geometry" />
        </mxCell>
        <mxCell id="MnuFQATYtYQSXa6r9P2V-13" value="" style="edgeStyle=orthogonalEdgeStyle;rounded=0;orthogonalLoop=1;jettySize=auto;html=1;exitX=0.5;exitY=0;exitDx=0;exitDy=0;targetPerimeterSpacing=1;fontSize=12;" parent="cqHebY4lpdV1N4gtzf8n-1" source="a9IHsp_jMBzStMLksn1q-4" edge="1">
          <mxGeometry x="-0.8239" relative="1" as="geometry">
            <mxPoint x="418" y="470" as="targetPoint" />
            <mxPoint x="492" y="675" as="sourcePoint" />
            <Array as="points">
              <mxPoint x="594" y="470" />
            </Array>
            <mxPoint as="offset" />
          </mxGeometry>
        </mxCell>
        <mxCell id="a9IHsp_jMBzStMLksn1q-1" value="Yes" style="edgeStyle=orthogonalEdgeStyle;rounded=0;orthogonalLoop=1;jettySize=auto;html=1;exitX=0.5;exitY=1;exitDx=0;exitDy=0;entryX=0.5;entryY=0;entryDx=0;entryDy=0;targetPerimeterSpacing=1;fontSize=12;" parent="cqHebY4lpdV1N4gtzf8n-1" source="MnuFQATYtYQSXa6r9P2V-0" target="a9IHsp_jMBzStMLksn1q-0" edge="1">
          <mxGeometry relative="1" as="geometry" />
        </mxCell>
        <mxCell id="MnuFQATYtYQSXa6r9P2V-0" value="&lt;span style=&quot;font-size: 12px&quot;&gt;목표 완료?&lt;/span&gt;" style="rhombus;whiteSpace=wrap;html=1;fillColor=#ffffff;fontSize=10;" parent="cqHebY4lpdV1N4gtzf8n-1" vertex="1">
          <mxGeometry x="348" y="630" width="140" height="90" as="geometry" />
        </mxCell>
        <mxCell id="MnuFQATYtYQSXa6r9P2V-10" value="No" style="edgeStyle=orthogonalEdgeStyle;rounded=0;orthogonalLoop=1;jettySize=auto;html=1;exitX=0.5;exitY=1;exitDx=0;exitDy=0;entryX=0.5;entryY=0;entryDx=0;entryDy=0;targetPerimeterSpacing=1;fontSize=12;" parent="cqHebY4lpdV1N4gtzf8n-1" source="MnuFQATYtYQSXa6r9P2V-5" target="MnuFQATYtYQSXa6r9P2V-9" edge="1">
          <mxGeometry relative="1" as="geometry" />
        </mxCell>
        <mxCell id="a9IHsp_jMBzStMLksn1q-6" value="Yes" style="edgeStyle=orthogonalEdgeStyle;rounded=0;orthogonalLoop=1;jettySize=auto;html=1;exitX=1;exitY=0.5;exitDx=0;exitDy=0;entryX=1;entryY=0.5;entryDx=0;entryDy=0;targetPerimeterSpacing=1;fontSize=12;" parent="cqHebY4lpdV1N4gtzf8n-1" source="MnuFQATYtYQSXa6r9P2V-5" target="CCf4gyZ3A-iMSWkEWNyC-1" edge="1">
          <mxGeometry x="-0.9232" relative="1" as="geometry">
            <Array as="points">
              <mxPoint x="710" y="925" />
              <mxPoint x="710" y="285" />
            </Array>
            <mxPoint as="offset" />
          </mxGeometry>
        </mxCell>
        <mxCell id="MnuFQATYtYQSXa6r9P2V-5" value="&lt;span style=&quot;font-size: 12px&quot;&gt;다음 목표가 있는가?&lt;/span&gt;" style="rhombus;whiteSpace=wrap;html=1;fillColor=#ffffff;fontSize=10;" parent="cqHebY4lpdV1N4gtzf8n-1" vertex="1">
          <mxGeometry x="348" y="880" width="140" height="90" as="geometry" />
        </mxCell>
        <mxCell id="MnuFQATYtYQSXa6r9P2V-9" value="Module 끝" style="rounded=1;whiteSpace=wrap;html=1;fontSize=12;glass=0;strokeWidth=1;shadow=0;" parent="cqHebY4lpdV1N4gtzf8n-1" vertex="1">
          <mxGeometry x="353.38" y="1020" width="129.25" height="50" as="geometry" />
        </mxCell>
        <mxCell id="a9IHsp_jMBzStMLksn1q-2" style="edgeStyle=orthogonalEdgeStyle;rounded=0;orthogonalLoop=1;jettySize=auto;html=1;exitX=0.5;exitY=1;exitDx=0;exitDy=0;entryX=0.5;entryY=0;entryDx=0;entryDy=0;targetPerimeterSpacing=1;fontSize=12;" parent="cqHebY4lpdV1N4gtzf8n-1" source="a9IHsp_jMBzStMLksn1q-0" target="MnuFQATYtYQSXa6r9P2V-5" edge="1">
          <mxGeometry relative="1" as="geometry" />
        </mxCell>
        <mxCell id="a9IHsp_jMBzStMLksn1q-0" value="목표 완료&lt;br&gt;트리거 실행" style="rounded=0;whiteSpace=wrap;html=1;fillColor=#ffffff;fontSize=12;" parent="cqHebY4lpdV1N4gtzf8n-1" vertex="1">
          <mxGeometry x="358" y="770" width="120" height="60" as="geometry" />
        </mxCell>
        <mxCell id="a9IHsp_jMBzStMLksn1q-4" value="오답&lt;br&gt;Text, Audio 출력" style="shape=parallelogram;perimeter=parallelogramPerimeter;whiteSpace=wrap;html=1;fixedSize=1;" parent="cqHebY4lpdV1N4gtzf8n-1" vertex="1">
          <mxGeometry x="534" y="540" width="120" height="60" as="geometry" />
        </mxCell>
        <mxCell id="a9IHsp_jMBzStMLksn1q-5" value="No" style="edgeStyle=orthogonalEdgeStyle;rounded=0;orthogonalLoop=1;jettySize=auto;html=1;exitX=1;exitY=0.5;exitDx=0;exitDy=0;targetPerimeterSpacing=1;fontSize=12;" parent="cqHebY4lpdV1N4gtzf8n-1" source="MnuFQATYtYQSXa6r9P2V-0" edge="1">
          <mxGeometry x="-0.7569" relative="1" as="geometry">
            <mxPoint x="594" y="600" as="targetPoint" />
            <mxPoint x="488" y="675" as="sourcePoint" />
            <Array as="points">
              <mxPoint x="594" y="675" />
            </Array>
            <mxPoint as="offset" />
          </mxGeometry>
        </mxCell>
      </root>
    </mxGraphModel>
  </diagram>
  <diagram id="cfA3TPlK0Nmll_5qSYQj" name="Module-4">
    <mxGraphModel dx="1422" dy="802" grid="1" gridSize="10" guides="1" tooltips="1" connect="1" arrows="1" fold="1" page="1" pageScale="1" pageWidth="827" pageHeight="1169" math="0" shadow="0">
      <root>
        <mxCell id="3Rjr37wOkzCYAcXg4rY9-0" />
        <mxCell id="3Rjr37wOkzCYAcXg4rY9-1" parent="3Rjr37wOkzCYAcXg4rY9-0" />
        <mxCell id="XFuTP3_VilGu0HnND2a--0" value="Module 시작" style="rounded=1;whiteSpace=wrap;html=1;fontSize=12;glass=0;strokeWidth=1;shadow=0;" parent="3Rjr37wOkzCYAcXg4rY9-1" vertex="1">
          <mxGeometry x="349" y="110" width="129.25" height="50" as="geometry" />
        </mxCell>
        <mxCell id="JCcBGlM4ZLl8FZjEhOhf-1" style="edgeStyle=orthogonalEdgeStyle;rounded=0;orthogonalLoop=1;jettySize=auto;html=1;exitX=0.5;exitY=1;exitDx=0;exitDy=0;entryX=0.5;entryY=0;entryDx=0;entryDy=0;targetPerimeterSpacing=1;fontSize=12;" parent="3Rjr37wOkzCYAcXg4rY9-1" target="JCcBGlM4ZLl8FZjEhOhf-0" edge="1">
          <mxGeometry relative="1" as="geometry">
            <mxPoint x="414" y="160" as="sourcePoint" />
          </mxGeometry>
        </mxCell>
        <mxCell id="JCcBGlM4ZLl8FZjEhOhf-3" value="No" style="edgeStyle=orthogonalEdgeStyle;rounded=0;orthogonalLoop=1;jettySize=auto;html=1;exitX=0.5;exitY=1;exitDx=0;exitDy=0;targetPerimeterSpacing=1;fontSize=12;" parent="3Rjr37wOkzCYAcXg4rY9-1" source="JCcBGlM4ZLl8FZjEhOhf-0" target="JCcBGlM4ZLl8FZjEhOhf-2" edge="1">
          <mxGeometry relative="1" as="geometry" />
        </mxCell>
        <mxCell id="JCcBGlM4ZLl8FZjEhOhf-7" value="Yes" style="edgeStyle=orthogonalEdgeStyle;rounded=0;orthogonalLoop=1;jettySize=auto;html=1;exitX=1;exitY=0.5;exitDx=0;exitDy=0;entryX=0;entryY=0.5;entryDx=0;entryDy=0;targetPerimeterSpacing=1;fontSize=12;" parent="3Rjr37wOkzCYAcXg4rY9-1" source="JCcBGlM4ZLl8FZjEhOhf-0" target="JCcBGlM4ZLl8FZjEhOhf-6" edge="1">
          <mxGeometry relative="1" as="geometry" />
        </mxCell>
        <mxCell id="JCcBGlM4ZLl8FZjEhOhf-0" value="공간이동 필요여부" style="rhombus;whiteSpace=wrap;html=1;fillColor=#ffffff;fontSize=12;" parent="3Rjr37wOkzCYAcXg4rY9-1" vertex="1">
          <mxGeometry x="344" y="190" width="140" height="70" as="geometry" />
        </mxCell>
        <mxCell id="JCcBGlM4ZLl8FZjEhOhf-5" style="edgeStyle=orthogonalEdgeStyle;rounded=0;orthogonalLoop=1;jettySize=auto;html=1;exitX=0.5;exitY=1;exitDx=0;exitDy=0;entryX=0.5;entryY=0;entryDx=0;entryDy=0;targetPerimeterSpacing=1;fontSize=12;" parent="3Rjr37wOkzCYAcXg4rY9-1" source="JCcBGlM4ZLl8FZjEhOhf-2" target="JCcBGlM4ZLl8FZjEhOhf-4" edge="1">
          <mxGeometry relative="1" as="geometry" />
        </mxCell>
        <mxCell id="JCcBGlM4ZLl8FZjEhOhf-2" value="Mission 목표 설정" style="rounded=0;whiteSpace=wrap;html=1;fillColor=#ffffff;fontSize=12;" parent="3Rjr37wOkzCYAcXg4rY9-1" vertex="1">
          <mxGeometry x="354" y="310" width="120" height="60" as="geometry" />
        </mxCell>
        <mxCell id="UpHOgZbl5-9EpV7x-bil-5" style="edgeStyle=orthogonalEdgeStyle;rounded=0;orthogonalLoop=1;jettySize=auto;html=1;exitX=0.5;exitY=1;exitDx=0;exitDy=0;entryX=0.5;entryY=0;entryDx=0;entryDy=0;targetPerimeterSpacing=1;fontSize=12;" parent="3Rjr37wOkzCYAcXg4rY9-1" source="JCcBGlM4ZLl8FZjEhOhf-4" target="JCcBGlM4ZLl8FZjEhOhf-9" edge="1">
          <mxGeometry relative="1" as="geometry" />
        </mxCell>
        <mxCell id="JCcBGlM4ZLl8FZjEhOhf-4" value="Quest 목표 설정" style="rounded=0;whiteSpace=wrap;html=1;fillColor=#ffffff;fontSize=12;" parent="3Rjr37wOkzCYAcXg4rY9-1" vertex="1">
          <mxGeometry x="354" y="410" width="120" height="60" as="geometry" />
        </mxCell>
        <mxCell id="JCcBGlM4ZLl8FZjEhOhf-8" style="edgeStyle=orthogonalEdgeStyle;rounded=0;orthogonalLoop=1;jettySize=auto;html=1;exitX=0.5;exitY=1;exitDx=0;exitDy=0;entryX=1;entryY=0.5;entryDx=0;entryDy=0;targetPerimeterSpacing=1;fontSize=12;" parent="3Rjr37wOkzCYAcXg4rY9-1" source="JCcBGlM4ZLl8FZjEhOhf-6" target="JCcBGlM4ZLl8FZjEhOhf-2" edge="1">
          <mxGeometry relative="1" as="geometry" />
        </mxCell>
        <mxCell id="JCcBGlM4ZLl8FZjEhOhf-6" value="공간이동" style="rounded=0;whiteSpace=wrap;html=1;fillColor=#ffffff;fontSize=12;" parent="3Rjr37wOkzCYAcXg4rY9-1" vertex="1">
          <mxGeometry x="550" y="195" width="120" height="60" as="geometry" />
        </mxCell>
        <mxCell id="vUn0Ein6NZXn2Z2XpmWX-0" value="Yes" style="edgeStyle=orthogonalEdgeStyle;rounded=0;orthogonalLoop=1;jettySize=auto;html=1;exitX=0;exitY=0.5;exitDx=0;exitDy=0;entryX=0;entryY=0.5;entryDx=0;entryDy=0;targetPerimeterSpacing=1;fontSize=12;" parent="3Rjr37wOkzCYAcXg4rY9-1" source="JCcBGlM4ZLl8FZjEhOhf-9" target="JCcBGlM4ZLl8FZjEhOhf-4" edge="1">
          <mxGeometry x="-0.7895" relative="1" as="geometry">
            <Array as="points">
              <mxPoint x="290" y="565" />
              <mxPoint x="290" y="440" />
            </Array>
            <mxPoint as="offset" />
          </mxGeometry>
        </mxCell>
        <mxCell id="UpHOgZbl5-9EpV7x-bil-1" value="No" style="edgeStyle=orthogonalEdgeStyle;rounded=0;orthogonalLoop=1;jettySize=auto;html=1;exitX=0.5;exitY=1;exitDx=0;exitDy=0;entryX=0.5;entryY=0;entryDx=0;entryDy=0;targetPerimeterSpacing=1;fontSize=12;" parent="3Rjr37wOkzCYAcXg4rY9-1" source="JCcBGlM4ZLl8FZjEhOhf-9" target="UpHOgZbl5-9EpV7x-bil-0" edge="1">
          <mxGeometry relative="1" as="geometry" />
        </mxCell>
        <mxCell id="JCcBGlM4ZLl8FZjEhOhf-9" value="다음 Quest" style="rhombus;whiteSpace=wrap;html=1;fillColor=#ffffff;fontSize=12;" parent="3Rjr37wOkzCYAcXg4rY9-1" vertex="1">
          <mxGeometry x="344.01" y="530" width="140" height="70" as="geometry" />
        </mxCell>
        <mxCell id="UpHOgZbl5-9EpV7x-bil-3" value="No" style="edgeStyle=orthogonalEdgeStyle;rounded=0;orthogonalLoop=1;jettySize=auto;html=1;exitX=0.5;exitY=1;exitDx=0;exitDy=0;entryX=0.5;entryY=0;entryDx=0;entryDy=0;targetPerimeterSpacing=1;fontSize=12;" parent="3Rjr37wOkzCYAcXg4rY9-1" source="UpHOgZbl5-9EpV7x-bil-0" target="UpHOgZbl5-9EpV7x-bil-2" edge="1">
          <mxGeometry relative="1" as="geometry" />
        </mxCell>
        <mxCell id="UpHOgZbl5-9EpV7x-bil-6" value="Yes" style="edgeStyle=orthogonalEdgeStyle;rounded=0;orthogonalLoop=1;jettySize=auto;html=1;exitX=0;exitY=0.5;exitDx=0;exitDy=0;entryX=0;entryY=0.5;entryDx=0;entryDy=0;targetPerimeterSpacing=1;fontSize=12;" parent="3Rjr37wOkzCYAcXg4rY9-1" source="UpHOgZbl5-9EpV7x-bil-0" target="JCcBGlM4ZLl8FZjEhOhf-2" edge="1">
          <mxGeometry x="-0.8409" relative="1" as="geometry">
            <Array as="points">
              <mxPoint x="250" y="695" />
              <mxPoint x="250" y="340" />
            </Array>
            <mxPoint as="offset" />
          </mxGeometry>
        </mxCell>
        <mxCell id="UpHOgZbl5-9EpV7x-bil-0" value="다음 Mission" style="rhombus;whiteSpace=wrap;html=1;fillColor=#ffffff;fontSize=12;" parent="3Rjr37wOkzCYAcXg4rY9-1" vertex="1">
          <mxGeometry x="344" y="660" width="140" height="70" as="geometry" />
        </mxCell>
        <mxCell id="UpHOgZbl5-9EpV7x-bil-2" value="Module 끝" style="rounded=1;whiteSpace=wrap;html=1;fontSize=12;glass=0;strokeWidth=1;shadow=0;" parent="3Rjr37wOkzCYAcXg4rY9-1" vertex="1">
          <mxGeometry x="349.38" y="790" width="129.25" height="50" as="geometry" />
        </mxCell>
      </root>
    </mxGraphModel>
  </diagram>
  <diagram id="gvA0RmeE2ujGLxVW3SVF" name="Practice Architecture">
    <mxGraphModel dx="1422" dy="802" grid="1" gridSize="10" guides="1" tooltips="1" connect="1" arrows="1" fold="1" page="1" pageScale="1" pageWidth="827" pageHeight="1169" math="0" shadow="0">
      <root>
        <mxCell id="1zANxNVUYNiP16pIaAuz-0" />
        <mxCell id="1zANxNVUYNiP16pIaAuz-1" parent="1zANxNVUYNiP16pIaAuz-0" />
        <mxCell id="rGmMNx0zUnsrPq41XeoY-0" style="edgeStyle=orthogonalEdgeStyle;rounded=0;orthogonalLoop=1;jettySize=auto;html=1;exitX=0.5;exitY=1;exitDx=0;exitDy=0;entryX=0.5;entryY=0;entryDx=0;entryDy=0;" parent="1zANxNVUYNiP16pIaAuz-1" source="1zANxNVUYNiP16pIaAuz-2" target="jP08V5AxGSmPmPR4Y5D0-0" edge="1">
          <mxGeometry relative="1" as="geometry" />
        </mxCell>
        <mxCell id="rGmMNx0zUnsrPq41XeoY-1" style="edgeStyle=orthogonalEdgeStyle;rounded=0;orthogonalLoop=1;jettySize=auto;html=1;exitX=1;exitY=0.5;exitDx=0;exitDy=0;entryX=0;entryY=0.5;entryDx=0;entryDy=0;" parent="1zANxNVUYNiP16pIaAuz-1" source="1zANxNVUYNiP16pIaAuz-2" target="zTktbFqkk8eepYY6CjiY-0" edge="1">
          <mxGeometry relative="1" as="geometry" />
        </mxCell>
        <mxCell id="1zANxNVUYNiP16pIaAuz-2" value="Practice Start" style="rounded=1;whiteSpace=wrap;html=1;" parent="1zANxNVUYNiP16pIaAuz-1" vertex="1">
          <mxGeometry x="343" y="345" width="120" height="60" as="geometry" />
        </mxCell>
        <mxCell id="rGmMNx0zUnsrPq41XeoY-2" value="Yes" style="edgeStyle=orthogonalEdgeStyle;rounded=0;orthogonalLoop=1;jettySize=auto;html=1;exitX=0.5;exitY=1;exitDx=0;exitDy=0;entryX=0.5;entryY=0;entryDx=0;entryDy=0;" parent="1zANxNVUYNiP16pIaAuz-1" source="zTktbFqkk8eepYY6CjiY-0" target="Nfoqa6eM6GpwNUtL9bMy-2" edge="1">
          <mxGeometry relative="1" as="geometry" />
        </mxCell>
        <mxCell id="zTktbFqkk8eepYY6CjiY-0" value="Push &quot;Done&quot; Button?" style="rhombus;whiteSpace=wrap;html=1;" parent="1zANxNVUYNiP16pIaAuz-1" vertex="1">
          <mxGeometry x="580" y="335" width="170" height="80" as="geometry" />
        </mxCell>
        <mxCell id="Nfoqa6eM6GpwNUtL9bMy-5" style="edgeStyle=orthogonalEdgeStyle;rounded=0;orthogonalLoop=1;jettySize=auto;html=1;exitX=0.5;exitY=1;exitDx=0;exitDy=0;entryX=0.5;entryY=0;entryDx=0;entryDy=0;" parent="1zANxNVUYNiP16pIaAuz-1" source="jP08V5AxGSmPmPR4Y5D0-0" target="Nfoqa6eM6GpwNUtL9bMy-1" edge="1">
          <mxGeometry relative="1" as="geometry" />
        </mxCell>
        <mxCell id="jP08V5AxGSmPmPR4Y5D0-0" value="Move Next Quest" style="rounded=0;whiteSpace=wrap;html=1;" parent="1zANxNVUYNiP16pIaAuz-1" vertex="1">
          <mxGeometry x="343" y="460" width="120" height="60" as="geometry" />
        </mxCell>
        <mxCell id="JhMyWk_8-oAQMkHEaWXD-0" value="No" style="edgeStyle=orthogonalEdgeStyle;rounded=0;orthogonalLoop=1;jettySize=auto;html=1;exitX=0;exitY=0.5;exitDx=0;exitDy=0;entryX=1;entryY=0.5;entryDx=0;entryDy=0;" parent="1zANxNVUYNiP16pIaAuz-1" source="Nfoqa6eM6GpwNUtL9bMy-1" target="Nfoqa6eM6GpwNUtL9bMy-7" edge="1">
          <mxGeometry x="0.1429" relative="1" as="geometry">
            <mxPoint as="offset" />
          </mxGeometry>
        </mxCell>
        <mxCell id="IC5E5LSqZNwVLadLBPOG-0" value="Yes" style="edgeStyle=orthogonalEdgeStyle;rounded=0;orthogonalLoop=1;jettySize=auto;html=1;exitX=1;exitY=0.5;exitDx=0;exitDy=0;entryX=1;entryY=0.5;entryDx=0;entryDy=0;" parent="1zANxNVUYNiP16pIaAuz-1" source="Nfoqa6eM6GpwNUtL9bMy-1" target="jP08V5AxGSmPmPR4Y5D0-0" edge="1">
          <mxGeometry x="-0.7621" relative="1" as="geometry">
            <Array as="points">
              <mxPoint x="550" y="610" />
              <mxPoint x="550" y="490" />
            </Array>
            <mxPoint as="offset" />
          </mxGeometry>
        </mxCell>
        <mxCell id="Nfoqa6eM6GpwNUtL9bMy-1" value="is Clear?" style="rhombus;whiteSpace=wrap;html=1;" parent="1zANxNVUYNiP16pIaAuz-1" vertex="1">
          <mxGeometry x="318" y="570" width="170" height="80" as="geometry" />
        </mxCell>
        <mxCell id="Nfoqa6eM6GpwNUtL9bMy-2" value="Practice End" style="rounded=1;whiteSpace=wrap;html=1;" parent="1zANxNVUYNiP16pIaAuz-1" vertex="1">
          <mxGeometry x="605" y="460" width="120" height="60" as="geometry" />
        </mxCell>
        <mxCell id="IC5E5LSqZNwVLadLBPOG-2" style="edgeStyle=orthogonalEdgeStyle;rounded=0;orthogonalLoop=1;jettySize=auto;html=1;exitX=0.5;exitY=1;exitDx=0;exitDy=0;entryX=0.5;entryY=1;entryDx=0;entryDy=0;" parent="1zANxNVUYNiP16pIaAuz-1" source="Nfoqa6eM6GpwNUtL9bMy-7" target="Nfoqa6eM6GpwNUtL9bMy-1" edge="1">
          <mxGeometry relative="1" as="geometry">
            <Array as="points">
              <mxPoint x="179" y="685" />
              <mxPoint x="403" y="685" />
            </Array>
          </mxGeometry>
        </mxCell>
        <mxCell id="Nfoqa6eM6GpwNUtL9bMy-7" value="Minus Score" style="rounded=0;whiteSpace=wrap;html=1;" parent="1zANxNVUYNiP16pIaAuz-1" vertex="1">
          <mxGeometry x="119" y="580" width="120" height="60" as="geometry" />
        </mxCell>
        <mxCell id="rGmMNx0zUnsrPq41XeoY-3" value="No" style="edgeStyle=orthogonalEdgeStyle;rounded=0;orthogonalLoop=1;jettySize=auto;html=1;exitX=1;exitY=0.5;exitDx=0;exitDy=0;entryX=0.5;entryY=0;entryDx=0;entryDy=0;" parent="1zANxNVUYNiP16pIaAuz-1" source="zTktbFqkk8eepYY6CjiY-0" target="zTktbFqkk8eepYY6CjiY-0" edge="1">
          <mxGeometry x="-0.873" relative="1" as="geometry">
            <Array as="points">
              <mxPoint x="790" y="375" />
              <mxPoint x="790" y="280" />
              <mxPoint x="665" y="280" />
            </Array>
            <mxPoint as="offset" />
          </mxGeometry>
        </mxCell>
      </root>
    </mxGraphModel>
  </diagram>
  <diagram id="FayAwHCwTnvgz0uEzVhZ" name="Practice System">
    <mxGraphModel dx="1422" dy="802" grid="1" gridSize="10" guides="1" tooltips="1" connect="1" arrows="1" fold="1" page="1" pageScale="1" pageWidth="827" pageHeight="1169" math="0" shadow="0">
      <root>
        <mxCell id="G7eddWrNpQLrhB4OOz-f-0" />
        <mxCell id="G7eddWrNpQLrhB4OOz-f-1" parent="G7eddWrNpQLrhB4OOz-f-0" />
        <mxCell id="4SY3aqGXWyM2dn4grivw-1" style="edgeStyle=orthogonalEdgeStyle;rounded=0;orthogonalLoop=1;jettySize=auto;html=1;exitX=0.5;exitY=1;exitDx=0;exitDy=0;entryX=0;entryY=0.5;entryDx=0;entryDy=0;" edge="1" parent="G7eddWrNpQLrhB4OOz-f-1" source="G7eddWrNpQLrhB4OOz-f-2" target="6JFdYk47wCtItlQd3d92-0">
          <mxGeometry relative="1" as="geometry" />
        </mxCell>
        <mxCell id="4SY3aqGXWyM2dn4grivw-2" style="edgeStyle=orthogonalEdgeStyle;rounded=0;orthogonalLoop=1;jettySize=auto;html=1;exitX=0.5;exitY=1;exitDx=0;exitDy=0;entryX=1;entryY=0.5;entryDx=0;entryDy=0;" edge="1" parent="G7eddWrNpQLrhB4OOz-f-1" source="G7eddWrNpQLrhB4OOz-f-2" target="966ykuHSH4yzHNWcVYFZ-0">
          <mxGeometry relative="1" as="geometry" />
        </mxCell>
        <mxCell id="1Sf8MX8EGreZKx4kcZkA-6" style="edgeStyle=orthogonalEdgeStyle;rounded=0;orthogonalLoop=1;jettySize=auto;html=1;exitX=0.5;exitY=1;exitDx=0;exitDy=0;entryX=0.5;entryY=0;entryDx=0;entryDy=0;" edge="1" parent="G7eddWrNpQLrhB4OOz-f-1" source="G7eddWrNpQLrhB4OOz-f-2" target="9UBQhLqBI_TQ8ox1VPwz-0">
          <mxGeometry relative="1" as="geometry" />
        </mxCell>
        <mxCell id="G7eddWrNpQLrhB4OOz-f-2" value="Practice Start" style="rounded=1;whiteSpace=wrap;html=1;" parent="G7eddWrNpQLrhB4OOz-f-1" vertex="1">
          <mxGeometry x="350" y="180" width="120" height="60" as="geometry" />
        </mxCell>
        <mxCell id="P3YFvlYrVBRM95RdPPpF-2" value="Yes" style="edgeStyle=orthogonalEdgeStyle;rounded=0;orthogonalLoop=1;jettySize=auto;html=1;exitX=0.5;exitY=1;exitDx=0;exitDy=0;entryX=0.5;entryY=0;entryDx=0;entryDy=0;" parent="G7eddWrNpQLrhB4OOz-f-1" source="6JFdYk47wCtItlQd3d92-0" target="fn68SGAt8L-Gxiv82mIz-0" edge="1">
          <mxGeometry relative="1" as="geometry" />
        </mxCell>
        <mxCell id="6JFdYk47wCtItlQd3d92-0" value="Push &quot;Done&quot; Button?" style="rhombus;whiteSpace=wrap;html=1;" parent="G7eddWrNpQLrhB4OOz-f-1" vertex="1">
          <mxGeometry x="574" y="310" width="190" height="80" as="geometry" />
        </mxCell>
        <mxCell id="NJ8BJyxPh_sRLdS0l3jj-8" value="Yes" style="edgeStyle=orthogonalEdgeStyle;rounded=0;orthogonalLoop=1;jettySize=auto;html=1;exitX=0.5;exitY=1;exitDx=0;exitDy=0;entryX=0.5;entryY=0;entryDx=0;entryDy=0;" parent="G7eddWrNpQLrhB4OOz-f-1" source="7BTanv7gjCFSH121AZcT-1" target="NJ8BJyxPh_sRLdS0l3jj-1" edge="1">
          <mxGeometry relative="1" as="geometry" />
        </mxCell>
        <mxCell id="KD9eJkmNEWmQZ9ha4Iho-0" value="No" style="edgeStyle=orthogonalEdgeStyle;rounded=0;orthogonalLoop=1;jettySize=auto;html=1;exitX=0;exitY=0.5;exitDx=0;exitDy=0;entryX=0;entryY=0.5;entryDx=0;entryDy=0;" parent="G7eddWrNpQLrhB4OOz-f-1" source="7BTanv7gjCFSH121AZcT-1" target="NJ8BJyxPh_sRLdS0l3jj-0" edge="1">
          <mxGeometry x="-0.8611" relative="1" as="geometry">
            <Array as="points">
              <mxPoint x="270" y="940" />
              <mxPoint x="270" y="1210" />
            </Array>
            <mxPoint as="offset" />
          </mxGeometry>
        </mxCell>
        <mxCell id="7BTanv7gjCFSH121AZcT-1" value="Active System?" style="rhombus;whiteSpace=wrap;html=1;" parent="G7eddWrNpQLrhB4OOz-f-1" vertex="1">
          <mxGeometry x="315" y="900" width="190" height="80" as="geometry" />
        </mxCell>
        <mxCell id="NJ8BJyxPh_sRLdS0l3jj-11" style="edgeStyle=orthogonalEdgeStyle;rounded=0;orthogonalLoop=1;jettySize=auto;html=1;exitX=0.5;exitY=0;exitDx=0;exitDy=0;entryX=0;entryY=0.5;entryDx=0;entryDy=0;" parent="G7eddWrNpQLrhB4OOz-f-1" source="7BTanv7gjCFSH121AZcT-2" target="xUrCK_xQraeIfSDUNM16-0" edge="1">
          <mxGeometry relative="1" as="geometry" />
        </mxCell>
        <mxCell id="7BTanv7gjCFSH121AZcT-2" value="Minus Score" style="rounded=0;whiteSpace=wrap;html=1;" parent="G7eddWrNpQLrhB4OOz-f-1" vertex="1">
          <mxGeometry x="80" y="1050" width="120" height="60" as="geometry" />
        </mxCell>
        <mxCell id="NJ8BJyxPh_sRLdS0l3jj-7" value="Yes" style="edgeStyle=orthogonalEdgeStyle;rounded=0;orthogonalLoop=1;jettySize=auto;html=1;exitX=0.5;exitY=1;exitDx=0;exitDy=0;entryX=0.5;entryY=0;entryDx=0;entryDy=0;" parent="G7eddWrNpQLrhB4OOz-f-1" source="xUrCK_xQraeIfSDUNM16-0" target="7BTanv7gjCFSH121AZcT-1" edge="1">
          <mxGeometry relative="1" as="geometry" />
        </mxCell>
        <mxCell id="xUrCK_xQraeIfSDUNM16-0" value="Interactable?" style="rhombus;whiteSpace=wrap;html=1;" parent="G7eddWrNpQLrhB4OOz-f-1" vertex="1">
          <mxGeometry x="315" y="760" width="190" height="80" as="geometry" />
        </mxCell>
        <mxCell id="KD9eJkmNEWmQZ9ha4Iho-2" value="No" style="edgeStyle=orthogonalEdgeStyle;rounded=0;orthogonalLoop=1;jettySize=auto;html=1;exitX=0.5;exitY=1;exitDx=0;exitDy=0;entryX=0.5;entryY=1;entryDx=0;entryDy=0;" parent="G7eddWrNpQLrhB4OOz-f-1" source="NJ8BJyxPh_sRLdS0l3jj-0" target="7BTanv7gjCFSH121AZcT-2" edge="1">
          <mxGeometry x="-0.9216" relative="1" as="geometry">
            <Array as="points">
              <mxPoint x="410" y="1290" />
              <mxPoint x="140" y="1290" />
            </Array>
            <mxPoint as="offset" />
          </mxGeometry>
        </mxCell>
        <mxCell id="1CKyZKFG9rvioBWFAwvh-8" value="Yes" style="edgeStyle=orthogonalEdgeStyle;rounded=0;orthogonalLoop=1;jettySize=auto;html=1;exitX=1;exitY=0.5;exitDx=0;exitDy=0;entryX=1;entryY=0.5;entryDx=0;entryDy=0;" edge="1" parent="G7eddWrNpQLrhB4OOz-f-1" source="NJ8BJyxPh_sRLdS0l3jj-0" target="1CKyZKFG9rvioBWFAwvh-7">
          <mxGeometry x="-0.7917" relative="1" as="geometry">
            <Array as="points">
              <mxPoint x="550" y="1210" />
              <mxPoint x="550" y="1360" />
            </Array>
            <mxPoint as="offset" />
          </mxGeometry>
        </mxCell>
        <mxCell id="NJ8BJyxPh_sRLdS0l3jj-0" value="Need Before A&lt;span style=&quot;font-family: , &amp;#34;gulim&amp;#34; , &amp;#34;helvetica&amp;#34; , &amp;#34;나눔바른고딕 옛한글&amp;#34; , &amp;#34;nanumbarungothic yethangul&amp;#34; , , sans-serif ; text-align: left ; background-color: rgb(255 , 255 , 255)&quot;&gt;chieve&lt;/span&gt;&lt;br&gt;System?" style="rhombus;whiteSpace=wrap;html=1;" parent="G7eddWrNpQLrhB4OOz-f-1" vertex="1">
          <mxGeometry x="315" y="1170" width="190" height="80" as="geometry" />
        </mxCell>
        <mxCell id="NJ8BJyxPh_sRLdS0l3jj-9" style="edgeStyle=orthogonalEdgeStyle;rounded=0;orthogonalLoop=1;jettySize=auto;html=1;exitX=0.5;exitY=1;exitDx=0;exitDy=0;entryX=0.5;entryY=0;entryDx=0;entryDy=0;" parent="G7eddWrNpQLrhB4OOz-f-1" source="NJ8BJyxPh_sRLdS0l3jj-1" target="NJ8BJyxPh_sRLdS0l3jj-0" edge="1">
          <mxGeometry relative="1" as="geometry" />
        </mxCell>
        <mxCell id="NJ8BJyxPh_sRLdS0l3jj-1" value="Active System" style="rounded=0;whiteSpace=wrap;html=1;" parent="G7eddWrNpQLrhB4OOz-f-1" vertex="1">
          <mxGeometry x="350" y="1050" width="120" height="60" as="geometry" />
        </mxCell>
        <mxCell id="fn68SGAt8L-Gxiv82mIz-0" value="Practice End" style="rounded=1;whiteSpace=wrap;html=1;" parent="G7eddWrNpQLrhB4OOz-f-1" vertex="1">
          <mxGeometry x="609" y="440" width="120" height="60" as="geometry" />
        </mxCell>
        <mxCell id="fn68SGAt8L-Gxiv82mIz-2" value="No" style="edgeStyle=orthogonalEdgeStyle;rounded=0;orthogonalLoop=1;jettySize=auto;html=1;exitX=1;exitY=0.5;exitDx=0;exitDy=0;entryX=0.5;entryY=0;entryDx=0;entryDy=0;" parent="G7eddWrNpQLrhB4OOz-f-1" source="xUrCK_xQraeIfSDUNM16-0" target="xUrCK_xQraeIfSDUNM16-0" edge="1">
          <mxGeometry x="-0.8947" relative="1" as="geometry">
            <Array as="points">
              <mxPoint x="540" y="800" />
              <mxPoint x="540" y="720" />
              <mxPoint x="410" y="720" />
            </Array>
            <mxPoint as="offset" />
          </mxGeometry>
        </mxCell>
        <mxCell id="4SY3aqGXWyM2dn4grivw-3" value="Yes" style="edgeStyle=orthogonalEdgeStyle;rounded=0;orthogonalLoop=1;jettySize=auto;html=1;exitX=0.5;exitY=1;exitDx=0;exitDy=0;entryX=0.5;entryY=0;entryDx=0;entryDy=0;" edge="1" parent="G7eddWrNpQLrhB4OOz-f-1" source="966ykuHSH4yzHNWcVYFZ-0" target="4SY3aqGXWyM2dn4grivw-0">
          <mxGeometry relative="1" as="geometry" />
        </mxCell>
        <mxCell id="966ykuHSH4yzHNWcVYFZ-0" value="Teleport?" style="rhombus;whiteSpace=wrap;html=1;" vertex="1" parent="G7eddWrNpQLrhB4OOz-f-1">
          <mxGeometry x="64" y="310" width="190" height="80" as="geometry" />
        </mxCell>
        <mxCell id="1Sf8MX8EGreZKx4kcZkA-7" style="edgeStyle=orthogonalEdgeStyle;rounded=0;orthogonalLoop=1;jettySize=auto;html=1;exitX=0.5;exitY=1;exitDx=0;exitDy=0;entryX=0;entryY=0.5;entryDx=0;entryDy=0;" edge="1" parent="G7eddWrNpQLrhB4OOz-f-1" source="4SY3aqGXWyM2dn4grivw-0" target="9UBQhLqBI_TQ8ox1VPwz-0">
          <mxGeometry relative="1" as="geometry" />
        </mxCell>
        <mxCell id="4SY3aqGXWyM2dn4grivw-0" value="Teleport" style="rounded=0;whiteSpace=wrap;html=1;" vertex="1" parent="G7eddWrNpQLrhB4OOz-f-1">
          <mxGeometry x="99" y="440" width="120" height="60" as="geometry" />
        </mxCell>
        <mxCell id="4SY3aqGXWyM2dn4grivw-4" value="No" style="edgeStyle=orthogonalEdgeStyle;rounded=0;orthogonalLoop=1;jettySize=auto;html=1;exitX=0;exitY=0.5;exitDx=0;exitDy=0;entryX=0.5;entryY=0;entryDx=0;entryDy=0;" edge="1" parent="G7eddWrNpQLrhB4OOz-f-1" source="966ykuHSH4yzHNWcVYFZ-0" target="966ykuHSH4yzHNWcVYFZ-0">
          <mxGeometry x="-0.8806" relative="1" as="geometry">
            <Array as="points">
              <mxPoint x="20" y="350" />
              <mxPoint x="20" y="250" />
              <mxPoint x="159" y="250" />
            </Array>
            <mxPoint as="offset" />
          </mxGeometry>
        </mxCell>
        <mxCell id="4SY3aqGXWyM2dn4grivw-5" value="No" style="edgeStyle=orthogonalEdgeStyle;rounded=0;orthogonalLoop=1;jettySize=auto;html=1;exitX=1;exitY=0.5;exitDx=0;exitDy=0;entryX=0.5;entryY=0;entryDx=0;entryDy=0;" edge="1" parent="G7eddWrNpQLrhB4OOz-f-1" source="6JFdYk47wCtItlQd3d92-0" target="6JFdYk47wCtItlQd3d92-0">
          <mxGeometry x="-0.8806" relative="1" as="geometry">
            <Array as="points">
              <mxPoint x="804" y="350" />
              <mxPoint x="804" y="250" />
              <mxPoint x="669" y="250" />
            </Array>
            <mxPoint as="offset" />
          </mxGeometry>
        </mxCell>
        <mxCell id="1Sf8MX8EGreZKx4kcZkA-3" style="edgeStyle=orthogonalEdgeStyle;rounded=0;orthogonalLoop=1;jettySize=auto;html=1;exitX=0.5;exitY=1;exitDx=0;exitDy=0;" edge="1" parent="G7eddWrNpQLrhB4OOz-f-1" source="9UBQhLqBI_TQ8ox1VPwz-0">
          <mxGeometry relative="1" as="geometry">
            <mxPoint x="410" y="760" as="targetPoint" />
          </mxGeometry>
        </mxCell>
        <mxCell id="9UBQhLqBI_TQ8ox1VPwz-0" value="Move Next Mission" style="rounded=0;whiteSpace=wrap;html=1;" vertex="1" parent="G7eddWrNpQLrhB4OOz-f-1">
          <mxGeometry x="350" y="530" width="120" height="60" as="geometry" />
        </mxCell>
        <mxCell id="1CKyZKFG9rvioBWFAwvh-4" value="Yes" style="edgeStyle=orthogonalEdgeStyle;rounded=0;orthogonalLoop=1;jettySize=auto;html=1;exitX=1;exitY=0.5;exitDx=0;exitDy=0;entryX=1;entryY=0.5;entryDx=0;entryDy=0;" edge="1" parent="G7eddWrNpQLrhB4OOz-f-1" source="1CKyZKFG9rvioBWFAwvh-3" target="9UBQhLqBI_TQ8ox1VPwz-0">
          <mxGeometry x="-0.9608" relative="1" as="geometry">
            <Array as="points">
              <mxPoint x="650" y="1590" />
              <mxPoint x="650" y="560" />
            </Array>
            <mxPoint as="offset" />
          </mxGeometry>
        </mxCell>
        <mxCell id="1CKyZKFG9rvioBWFAwvh-3" value="Exist Next Mission?" style="rhombus;whiteSpace=wrap;html=1;" vertex="1" parent="G7eddWrNpQLrhB4OOz-f-1">
          <mxGeometry x="315" y="1550" width="190" height="80" as="geometry" />
        </mxCell>
        <mxCell id="1CKyZKFG9rvioBWFAwvh-10" value="No" style="edgeStyle=orthogonalEdgeStyle;rounded=0;orthogonalLoop=1;jettySize=auto;html=1;exitX=0;exitY=0.5;exitDx=0;exitDy=0;entryX=0;entryY=0.5;entryDx=0;entryDy=0;" edge="1" parent="G7eddWrNpQLrhB4OOz-f-1" source="1CKyZKFG9rvioBWFAwvh-7" target="7BTanv7gjCFSH121AZcT-2">
          <mxGeometry x="-0.916" relative="1" as="geometry">
            <Array as="points">
              <mxPoint x="40" y="1360" />
              <mxPoint x="40" y="1080" />
            </Array>
            <mxPoint as="offset" />
          </mxGeometry>
        </mxCell>
        <mxCell id="1Sf8MX8EGreZKx4kcZkA-1" value="Yes" style="edgeStyle=orthogonalEdgeStyle;rounded=0;orthogonalLoop=1;jettySize=auto;html=1;exitX=0.5;exitY=1;exitDx=0;exitDy=0;entryX=0.5;entryY=0;entryDx=0;entryDy=0;" edge="1" parent="G7eddWrNpQLrhB4OOz-f-1" source="1CKyZKFG9rvioBWFAwvh-7" target="1Sf8MX8EGreZKx4kcZkA-0">
          <mxGeometry relative="1" as="geometry" />
        </mxCell>
        <mxCell id="1CKyZKFG9rvioBWFAwvh-7" value="Clear Before Mission?" style="rhombus;whiteSpace=wrap;html=1;" vertex="1" parent="G7eddWrNpQLrhB4OOz-f-1">
          <mxGeometry x="315" y="1320" width="190" height="80" as="geometry" />
        </mxCell>
        <mxCell id="1Sf8MX8EGreZKx4kcZkA-4" style="edgeStyle=orthogonalEdgeStyle;rounded=0;orthogonalLoop=1;jettySize=auto;html=1;exitX=0.5;exitY=1;exitDx=0;exitDy=0;" edge="1" parent="G7eddWrNpQLrhB4OOz-f-1" source="1Sf8MX8EGreZKx4kcZkA-0" target="1CKyZKFG9rvioBWFAwvh-3">
          <mxGeometry relative="1" as="geometry" />
        </mxCell>
        <mxCell id="1Sf8MX8EGreZKx4kcZkA-0" value="&lt;span style=&quot;font-family: , &amp;#34;gulim&amp;#34; , &amp;#34;helvetica&amp;#34; , &amp;#34;나눔바른고딕 옛한글&amp;#34; , &amp;#34;nanumbarungothic yethangul&amp;#34; , , sans-serif ; text-align: left ; background-color: rgb(255 , 255 , 255)&quot;&gt;Achieve Next System&lt;/span&gt;" style="rounded=0;whiteSpace=wrap;html=1;" vertex="1" parent="G7eddWrNpQLrhB4OOz-f-1">
          <mxGeometry x="350" y="1450" width="120" height="60" as="geometry" />
        </mxCell>
        <mxCell id="1Sf8MX8EGreZKx4kcZkA-5" value="No" style="edgeStyle=orthogonalEdgeStyle;rounded=0;orthogonalLoop=1;jettySize=auto;html=1;exitX=0.5;exitY=1;exitDx=0;exitDy=0;entryX=0;entryY=0.5;entryDx=0;entryDy=0;" edge="1" parent="G7eddWrNpQLrhB4OOz-f-1" source="1CKyZKFG9rvioBWFAwvh-3" target="1CKyZKFG9rvioBWFAwvh-3">
          <mxGeometry x="-0.8841" relative="1" as="geometry">
            <Array as="points">
              <mxPoint x="410" y="1680" />
              <mxPoint x="260" y="1680" />
              <mxPoint x="260" y="1590" />
            </Array>
            <mxPoint as="offset" />
          </mxGeometry>
        </mxCell>
      </root>
    </mxGraphModel>
  </diagram>
</mxfile>
